<svg width="158" height="207" viewBox="0 0 158 207" fill="none" xmlns="http://www.w3.org/2000/svg">
<path d="M157.564 9.44739C157.287 9.2649 156.62 9.16931 156.62 9.16931H156.256C156.256 9.16931 156.837 6.91856 156.715 6.45798C156.594 5.99741 155.71 5.36303 155.381 5.3022C155.043 5.24136 154.774 5.45862 154.774 5.45862C154.774 5.45862 154.679 3.99868 154.558 3.81619C154.437 3.6337 153.163 3.20789 152.886 3.20789C152.608 3.20789 150.945 4.72865 151.006 4.91114C151.066 5.09364 151.222 5.31089 151.222 5.31089L150.434 6.8056L150.009 6.40585V4.66782L150.468 3.41644C150.468 3.41644 151.959 1.28737 151.959 0.887624C151.959 0.487878 151.135 -0.268166 150.26 0.0968195C149.377 0.461805 148.016 2.80813 148.016 2.80813L147.531 4.5114L147.228 6.57964L145.53 8.25685L144.256 7.46604C144.256 7.46604 144.62 4.75472 144.195 3.75535C143.771 2.7473 142.983 3.35562 142.887 3.69453C142.792 4.03345 141.614 7.04023 141.7 7.22272C141.796 7.40521 142.827 10.9942 142.853 11.1159C142.879 11.2376 144.828 14.6441 144.828 14.6441L145.192 16.2865C145.192 16.2865 144.551 18.2939 144.187 18.7545C143.823 19.2151 136.9 27.6097 129.622 33.3365C122.344 39.0633 117.969 45.3898 117.484 45.6331C116.999 45.8764 107.347 50.9254 107.347 50.9254C107.347 50.9254 106.437 50.4387 105.77 50.9254C105.103 51.412 94.5411 55.9135 94.5411 55.9135L93.7526 56.461C93.7526 56.461 87.9303 56.2785 85.9202 58.7117C85.9202 58.7117 84.586 58.4076 83.5549 60.3541C82.5239 62.3007 79.9766 63.8215 79.9766 63.8215L79.3095 63.0307C79.3095 63.0307 84.1008 58.7117 84.6466 56.6348C85.1925 54.5665 77.2387 55.114 74.0243 56.8173C74.0243 56.8173 69.415 52.1333 64.1299 52.2549C58.8534 52.3766 53.2043 55.479 50.839 59.5633C48.4737 63.639 49.0195 69.5483 49.9899 72.164C50.9603 74.7798 54.1574 79.5941 54.1574 79.5941L49.704 85.5207C49.704 85.5207 47.2347 88.319 47.356 88.2842C47.4773 88.2494 47.356 88.849 47.356 88.849C47.356 88.849 45.6232 90.3872 44.5315 91.8559C43.4398 93.3158 42.1402 95.5926 41.5337 95.9141C40.9272 96.2357 35.1395 98.3908 31.9078 100.416C28.6674 102.449 17.378 111.009 16.8928 111.174C16.4076 111.339 16.0004 111.417 16.0004 111.417C16.0004 111.417 12.5694 110.557 12.0582 110.096C11.5383 109.636 10.0567 108.723 9.63218 108.723C9.20763 108.723 8.60114 109.028 8.60114 109.028C8.60114 109.028 7.59609 109.271 7.3535 109.453C7.1109 109.636 3.13405 110.974 3.13405 110.974L1.55719 112.252C1.55719 112.252 -0.115005 114.198 0.00629385 114.381C0.127592 114.563 0.309535 114.989 1.21927 114.685L1.58318 114.963C1.58318 114.963 0.855378 116.883 1.21927 117.092C1.58317 117.309 1.98171 117.188 2.10301 117.092C2.22431 117.005 2.74418 116.206 2.74418 116.206L3.68857 115.137L3.96583 115.232L3.35933 116.388C3.35933 116.388 3.11673 117.787 3.57593 117.883C4.03513 117.978 4.48568 117.544 4.66762 117.214C4.84957 116.875 5.69866 115.719 5.69866 115.719L7.03293 115.841L7.27552 116.058L6.93763 117.335C6.93763 117.335 7.05894 118.222 7.45749 118.248C7.85604 118.283 8.18528 117.944 8.18528 117.944L8.46254 116.996L8.82642 116.536C8.82642 116.536 12.9246 117.422 13.7996 117.509C14.6834 117.605 17.2913 117.17 17.2913 117.17C17.2913 117.17 26.8219 114.641 33.1728 112.617C39.5236 110.583 43.3272 108.028 44.0983 107.385C44.8694 106.733 51.2635 100.928 52.4765 99.5553C53.6895 98.1736 55.3877 96.3052 55.509 96.2704C55.6303 96.2357 58.9054 94.6888 59.3906 94.2804C59.8757 93.8719 60.0404 93.7937 60.1183 93.6286C60.1963 93.4635 60.5602 92.412 60.5602 92.412H60.9241C60.9241 92.412 62.3797 93.2636 62.7002 93.4288C63.0208 93.5939 69.0511 93.7155 69.0511 93.7155L71.5204 93.5504C71.5204 93.5504 80.5831 99.0686 81.3109 99.7986C82.0387 100.529 82.2206 101.502 83.2517 101.502C84.2827 101.502 85.7989 101.198 85.7989 101.198L87.5578 102.536C87.5578 102.536 86.648 103.448 86.5267 103.935C86.4054 104.422 86.8906 106.49 86.8906 106.49L85.617 108.802C85.617 108.802 72.0229 106.794 66.01 106.551C59.997 106.308 54.9631 108.011 52.4159 109.957C49.8686 111.904 49.8686 113.79 49.8686 113.79C49.8686 113.79 49.4441 114.641 49.4441 115.371V118.23L48.2311 124.131L47.4426 128.632C47.4426 128.632 46.5936 136.367 46.6542 137.522C46.7149 138.678 46.7149 140.199 46.7149 140.199C46.7149 140.199 45.138 143.058 45.0167 143.545C44.8954 144.031 44.6528 148.046 44.6528 148.046C44.6528 148.046 43.7431 149.871 44.2282 151.331C44.7134 152.791 45.9871 153.582 45.9871 153.582C45.9871 153.582 45.7098 158.57 45.8051 158.935C45.8918 159.3 46.4463 159.335 46.4463 159.335C46.4463 159.335 46.325 161.829 46.169 162.593C46.0131 163.358 44.5575 164.905 44.5575 164.905C44.5575 164.905 42.9199 164.505 42.556 164.905C42.1921 165.305 37.8514 169.076 37.8514 169.076L29.5338 173.187C29.5338 173.187 26.0768 172.274 21.6754 171.24C17.274 170.206 14.6921 170.571 12.6906 171.579C10.6892 172.587 11.1398 175.689 12.8466 177.271C14.5448 178.853 19.1628 182.016 20.9216 182.442C22.0826 182.72 28.3901 183.519 32.5489 184.032C32.6096 184.249 32.6615 184.423 32.6962 184.423C32.7915 184.423 33.7013 184.666 33.7013 184.666C33.7013 184.666 33.9785 187.612 31.3446 189.229C30.7814 188.499 29.993 188.047 29.1179 188.047H26.6313C24.9764 188.116 23.6595 189.794 23.6595 191.862C23.6595 193.93 25.0371 195.677 26.7353 195.677H29.1266C30.7035 195.677 32.0031 194.199 32.1764 192.296L39.9481 191.045C40.5113 191.957 41.395 192.548 42.3914 192.548H44.7827C46.4809 192.548 47.8585 190.836 47.8585 188.733C47.8585 187.908 47.6506 187.152 47.2867 186.526C52.1386 187.404 57.857 188.421 62.8302 189.22C70.8186 190.506 78.7723 193.426 84.8199 195.016C84.9758 196.233 85.1145 198.266 84.534 199.457C84.3174 199.396 84.1008 199.37 83.8755 199.37H81.3889C79.734 199.44 78.4171 201.117 78.4171 203.185C78.4171 205.253 79.7947 207 81.4928 207H83.8842C85.5823 207 86.9599 205.288 86.9599 203.185C86.9599 203.055 86.9599 202.924 86.9426 202.794L93.0075 201.673C93.5707 202.585 94.4545 203.185 95.4508 203.185H97.8421C99.5403 203.185 100.918 201.473 100.918 199.37C100.918 197.267 99.5403 195.555 97.8421 195.555H96.2219C104.228 194.321 116.756 191.323 117.631 190.967C118.723 190.524 118.723 189.707 118.48 189.263C118.238 188.82 117.709 188.777 117.709 188.777C117.709 188.777 109.088 190.437 106.827 190.48C104.557 190.524 91.9332 186.83 84.3694 185.249C76.8055 183.667 47.226 178.714 47.226 178.714C47.226 178.714 57.1379 178.227 58.0303 178.062C58.9227 177.897 59.6072 176.724 59.6072 176.724L59.3212 173.074C59.3212 173.074 59.5638 171.57 59.3212 171.005C59.0786 170.441 57.9523 167.721 57.9523 167.721C57.9523 167.721 58.0129 166.182 57.0425 165.957C56.1241 165.748 55.7256 166.304 55.7256 166.304C55.7256 166.304 55.5263 163.384 55.561 162.898C55.6043 162.411 56.1241 160.056 56.1241 160.056C56.1241 160.056 57.4151 160.299 57.7443 160.056C58.0649 159.813 58.1862 159.526 58.1862 159.526L58.3508 155.85C58.3508 155.85 59.6678 155.572 59.7544 155.546C59.8497 155.52 61.21 154.599 61.4526 153.99C61.6952 153.382 61.5133 150.949 61.5133 150.731C61.5133 150.514 63.1855 146.412 63.3327 145.344C63.4887 144.275 63.428 140.26 63.428 140.26C63.428 140.26 66.0966 134.507 66.2179 133.838C66.3392 133.169 66.0966 130.032 66.1226 129.884C66.1486 129.727 67.6128 127.963 67.6128 127.963L68.4619 127.416C68.4619 127.416 77.7153 131.526 79.5088 131.891C81.3023 132.256 88.9787 133.838 88.9787 133.838L89.256 134.663C89.256 134.663 87.4971 138.07 88.0083 141.242C88.5282 144.405 90.0444 146.995 90.313 147.881C90.5902 148.767 91.2227 150.592 92.0458 151.409C92.8689 152.235 93.718 152.356 93.718 152.356L93.8393 154.277C93.8393 154.277 93.4407 155.129 93.536 155.711C93.6313 156.293 93.562 160.065 93.874 160.247C94.1772 160.43 94.3332 160.525 94.3332 160.525L94.1166 164.21C94.1166 164.21 92.5657 164.21 92.2018 164.453C91.8379 164.696 89.9837 169.502 89.9837 169.502L87.1939 173.091L85.5823 174.673L83.217 176.472L81.8481 178.175C81.8481 178.175 81.5448 178.94 81.5708 179.244C81.5968 179.548 81.7874 181.92 82.238 182.224C82.6972 182.529 87.939 183.015 92.0978 182.894C96.2566 182.772 98.6566 181.46 99.471 180.912C100.294 180.365 104.323 177.932 105.389 177.384C106.454 176.837 107.147 176.498 106.697 174.551C106.697 174.551 106.879 173.482 106.454 172.726C106.03 171.961 105.848 170.38 105.848 170.38C105.848 170.38 106.55 168.555 105.935 167.425C105.328 166.295 104.236 166.269 104.236 166.269L104.141 165.87C104.141 165.87 103.561 161.333 103.561 161.212C103.561 161.09 104.626 160.812 104.687 160.386C104.748 159.96 105.085 154.998 105.389 154.416C105.692 153.834 108.516 151.739 108.724 150.366C108.941 148.993 109.27 148.872 108.846 148.177C108.421 147.473 107.598 146.291 107.598 146.291C107.598 146.291 108.421 141.485 108.508 141.085C108.594 140.686 108.932 135.333 108.932 135.333C108.932 135.333 111.142 134.603 112.233 134.194C113.325 133.786 115.023 133.586 115.023 133.586C115.023 133.586 121.946 134.681 125.628 132.491C129.31 130.301 133.071 123.966 134.084 119.829C135.098 115.693 134.084 113.216 134.084 113.216C134.084 113.216 134.084 110.253 133.114 108.506C132.144 106.759 130.523 104.37 130.523 104.37C130.523 104.37 131.009 103.84 130.723 103.075C130.437 102.301 129.102 100.885 129.102 100.885C129.102 100.885 129.025 97.7999 128.782 97.4783C128.539 97.1568 126.027 93.5417 124.935 92.2034C123.843 90.8652 120.161 84.9819 118.012 82.0534C115.864 79.1335 111.09 71.9033 108.222 69.1486C108.222 69.1486 110.163 67.1585 110.57 66.9152C110.977 66.6719 111.705 66.3851 111.904 65.742C112.103 65.0902 111.982 62.3355 111.982 62.3355C111.982 62.3355 124.225 54.9923 126.408 54.1407C128.591 53.2891 131.442 49.3959 131.442 49.3959C131.442 49.3959 138.607 41.2967 140.123 39.2284C141.64 37.1602 151.413 23.5254 151.959 22.8562C152.504 22.1871 153.414 19.9972 153.414 19.9972C153.414 19.9972 155.693 17.9898 156.143 16.7732C156.594 15.5565 157.114 12.9408 157.114 12.9408C157.114 12.9408 157.963 10.777 157.998 10.5337C158.024 10.2903 157.842 9.6212 157.573 9.4387L157.564 9.44739ZM94.3072 195.868C93.874 196.076 93.4927 196.398 93.1808 196.815L92.7649 196.042C93.2415 195.998 93.7613 195.937 94.3072 195.868ZM90.7808 196.12C90.8155 196.589 90.6509 197.067 89.8538 197.102C88.8054 197.145 88.1903 196.329 87.887 195.772C88.944 195.972 89.9144 196.094 90.7722 196.12H90.7808Z" fill="#F97700"/>
</svg>
