<?xml version="1.0" encoding="utf-8"?><svg xmlns="http://www.w3.org/2000/svg" xmlns:xlink="http://www.w3.org/1999/xlink"><symbol viewBox="0 0 21 8" id="arrow" xmlns="http://www.w3.org/2000/svg">
    <path d="M20.3536 4.35356C20.5488 4.15829 20.5488 3.84171 20.3536 3.64645L17.1716 0.464468C16.9763 0.269206 16.6597 0.269206 16.4645 0.464468C16.2692 0.65973 16.2692 0.976313 16.4645 1.17158L19.2929 4L16.4645 6.82843C16.2692 7.02369 16.2692 7.34027 16.4645 7.53554C16.6597 7.7308 16.9763 7.7308 17.1716 7.53554L20.3536 4.35356ZM0 4L-2.91409e-08 4.5L20 4.5L20 4L20 3.5L2.91409e-08 3.5L0 4Z"/>
</symbol><symbol viewBox="0 0 23 23" id="cross" xmlns="http://www.w3.org/2000/svg">
    <g clip-path="url(#bclip0_2_39739)">
        <path d="M11.5 10.7929L19.2782 3.01471L19.9853 3.72182L12.2071 11.5L19.9853 19.2782L19.2782 19.9853L11.5 12.2071L3.72185 19.9853L3.01475 19.2782L10.7929 11.5L3.01475 3.72182L3.72185 3.01472L11.5 10.7929Z"/>
    </g>
    <defs>
        <clipPath id="bclip0_2_39739">
            <rect width="23" height="23"/>
        </clipPath>
    </defs>
</symbol><symbol viewBox="0 0 23 23" id="plus" xmlns="http://www.w3.org/2000/svg">
    <path d="M12 11.0002H23V12.0002H12V23.0002H11V12.0002H0V11.0002H11V0.000244141H12V11.0002Z"/>
</symbol></svg>