<?xml version="1.0" encoding="utf-8"?><svg xmlns="http://www.w3.org/2000/svg" xmlns:xlink="http://www.w3.org/1999/xlink"><symbol viewBox="0 0 18 28" id="arrow" xmlns="http://www.w3.org/2000/svg">
    <path d="M17 27L1 14L17 1" stroke-width="2" stroke-linecap="round" stroke-linejoin="round"/>
</symbol><symbol viewBox="0 0 76 76" id="icon_cap" xmlns="http://www.w3.org/2000/svg">
    <path fill-rule="evenodd" clip-rule="evenodd" d="M69.6667 30.8433L63.3333 34.0733V57C60.1445 63.4632 45.581 66.5 36.4167 66.5C26.3625 66.5 13.0182 63.3523 9.5 57V32.3127L0 26.3087L38 9.5L72.8333 29.2315V57L76 66.5H66.5L69.6667 57V30.8433ZM12.6667 34.3108V56.0753C15.7003 60.1287 26.0205 63.3333 36.4167 63.3333C45.581 63.3333 57.2818 60.2965 60.1667 56.1482V35.6852L35.0772 48.4753L12.6667 34.3108ZM6.71017 26.8027L35.245 44.8337L66.1485 29.0827L37.8258 13.0403L6.71017 26.8027Z"/>
</symbol><symbol viewBox="0 0 76 76" id="icon_desk" xmlns="http://www.w3.org/2000/svg">
    <g clip-path="url(#cclip0_12001_144)">
        <path fill-rule="evenodd" clip-rule="evenodd" d="M69.6667 66.5C71.345 66.5 72.9568 67.1682 74.1443 68.3557C75.335 69.5432 76 71.155 76 72.8333V76H57V72.8333C57 69.3373 59.8373 66.5 63.3333 66.5H69.6667ZM47.5 66.5C49.1783 66.5 50.7902 67.1682 51.9777 68.3557C53.1683 69.5432 53.8333 71.155 53.8333 72.8333V76H34.8333V72.8333C34.8333 69.3373 37.6707 66.5 41.1667 66.5H47.5ZM69.6667 69.6667H63.3333C61.5885 69.6667 60.1667 71.0853 60.1667 72.8333H72.8333C72.8333 71.0473 71.3735 69.6667 69.6667 69.6667ZM47.5 69.6667H41.1667C39.4218 69.6667 38 71.0853 38 72.8333H50.6667C50.6667 71.0473 49.2068 69.6667 47.5 69.6667ZM26.0997 65.816C26.0205 67.9662 24.2757 69.6477 22.1223 69.6477C20.0957 69.6477 18.3888 68.0738 18.1513 65.987L16.8657 53.2127L15.8618 65.9395C15.7003 68.0168 13.9492 69.6477 11.8813 69.6477C9.72483 69.6477 7.9705 67.9662 7.885 65.816L7.05533 45.372L6.08 47.1295C5.31683 48.5133 3.54667 49.1498 2.07417 48.583C0.794833 48.089 0 46.8793 0 45.5715C0 45.277 0.038 44.9762 0.1235 44.6753L3.7145 31.6983C4.25283 29.7952 6.01033 28.4652 7.99267 28.4652H20.9633C22.5815 28.4652 24.168 27.9015 25.0325 27.4202C27.322 26.144 32.756 23.085 34.9632 21.7423C36.2108 20.9728 37.9683 21.2768 38.8898 22.4295C39.9032 23.6835 39.7955 25.4378 38.6555 26.5367L29.0035 35.739C27.816 36.8758 27.1193 38.4275 27.0497 40.1122C26.8565 44.536 26.0997 65.816 26.0997 65.816ZM7.99267 31.6318C7.42267 31.6318 6.916 32.015 6.76083 32.5628C5.82667 35.8562 3.55933 44.1718 3.16983 45.5398L7.95467 37.3287C8.49933 36.3945 9.9275 36.7587 9.96867 37.829L11.0485 65.6862C11.0802 66.5665 12.6318 66.595 12.7047 65.6925C12.7047 65.6925 13.5565 55.0842 13.68 53.2032C13.8098 51.3063 15.1018 49.9827 16.8213 49.9827C18.5535 49.989 19.8867 51.2968 20.0798 53.162C20.1938 54.2672 21.1153 63.9888 21.299 65.6323C21.4352 66.8293 22.8982 66.6647 22.9362 65.702C22.9362 65.702 23.693 44.4062 23.8862 39.976C23.9907 37.4712 25.0325 35.1532 26.8153 33.4495L36.4578 24.2535C34.3647 25.8115 28.88 28.9022 26.5747 30.1847C25.3207 30.8845 23.1863 31.6318 20.9633 31.6318H7.99267ZM66.5 50.6667C62.3675 50.6667 59.014 54.0233 59.014 58.1527C59.014 62.2852 62.3675 65.6418 66.5 65.6418C70.6325 65.6418 73.986 62.2852 73.986 58.1527C73.986 54.0233 70.6325 50.6667 66.5 50.6667ZM44.3333 50.6667C40.2008 50.6667 36.8473 54.0233 36.8473 58.1527C36.8473 62.2852 40.2008 65.6418 44.3333 65.6418C48.4658 65.6418 51.8193 62.2852 51.8193 58.1527C51.8193 54.0233 48.4658 50.6667 44.3333 50.6667ZM66.5 53.8333C68.8813 53.8333 70.8193 55.7713 70.8193 58.1527C70.8193 60.5372 68.8813 62.4752 66.5 62.4752C64.1187 62.4752 62.1807 60.5372 62.1807 58.1527C62.1807 55.7713 64.1187 53.8333 66.5 53.8333ZM44.3333 53.8333C46.7147 53.8333 48.6527 55.7713 48.6527 58.1527C48.6527 60.5372 46.7147 62.4752 44.3333 62.4752C41.952 62.4752 40.014 60.5372 40.014 58.1527C40.014 55.7713 41.952 53.8333 44.3333 53.8333ZM76 47.5H29.583V44.3333H53.8333V41.1667H63.3333V44.3333H72.8333V3.16667H3.16667V25.3333L0 34.8333V0H76V47.5ZM57 28.5H44.3333V25.3333H57V28.5ZM16.6978 12.6667C12.6508 12.6667 9.367 15.9537 9.367 20.0007C9.367 24.0477 12.6508 27.3347 16.6978 27.3347C20.7448 27.3347 24.0318 24.0477 24.0318 20.0007C24.0318 15.9537 20.7448 12.6667 16.6978 12.6667ZM16.6978 15.8333C18.9968 15.8333 20.8652 17.7017 20.8652 20.0007C20.8652 22.2997 18.9968 24.168 16.6978 24.168C14.402 24.168 12.5337 22.2997 12.5337 20.0007C12.5337 17.7017 14.402 15.8333 16.6978 15.8333ZM66.5 22.1667H44.3333V19H66.5V22.1667ZM66.5 15.8333H44.3333V12.6667H66.5V15.8333Z"/>
    </g>
    <defs>
        <clipPath id="cclip0_12001_144">
            <rect width="76" height="76"/>
        </clipPath>
    </defs>
</symbol><symbol viewBox="0 0 76 76" id="icon_i" xmlns="http://www.w3.org/2000/svg">
    <g clip-path="url(#dclip0_12001_167)">
        <rect x="6.06006" y="6.06006" width="63.88" height="63.88" rx="6.5" stroke-width="3"/>
        <path d="M37.66 28.58C37.24 28.58 36.88 28.43 36.58 28.13C36.28 27.83 36.13 27.47 36.13 27.05V26.93C36.13 26.51 36.28 26.15 36.58 25.85C36.88 25.55 37.24 25.4 37.66 25.4H37.84C38.26 25.4 38.62 25.55 38.92 25.85C39.22 26.15 39.37 26.51 39.37 26.93V27.05C39.37 27.47 39.22 27.83 38.92 28.13C38.62 28.43 38.26 28.58 37.84 28.58H37.66ZM37.72 47.15C37.34 47.15 37.02 47.02 36.76 46.76C36.5 46.5 36.37 46.18 36.37 45.8V32.93C36.37 32.55 36.5 32.23 36.76 31.97C37.02 31.69 37.34 31.55 37.72 31.55C38.12 31.55 38.45 31.68 38.71 31.94C38.97 32.2 39.1 32.53 39.1 32.93V45.8C39.1 46.18 38.96 46.5 38.68 46.76C38.42 47.02 38.1 47.15 37.72 47.15Z"/>
    </g>
    <defs>
        <clipPath id="dclip0_12001_167">
            <rect width="76" height="76"/>
        </clipPath>
    </defs>
</symbol><symbol viewBox="0 0 76 76" id="icon_message" xmlns="http://www.w3.org/2000/svg">
    <path fill-rule="evenodd" clip-rule="evenodd" d="M63.3333 47.5011C63.3333 49.2491 61.9147 50.6677 60.1667 50.6677C58.4187 50.6677 57 49.2491 57 47.5011C57 45.7531 58.4187 44.3344 60.1667 44.3344C61.9147 44.3344 63.3333 45.7531 63.3333 47.5011ZM53.8333 47.5011C53.8333 49.2491 52.4147 50.6677 50.6667 50.6677C48.9187 50.6677 47.5 49.2491 47.5 47.5011C47.5 45.7531 48.9187 44.3344 50.6667 44.3344C52.4147 44.3344 53.8333 45.7531 53.8333 47.5011ZM44.3333 47.5011C44.3333 49.2491 42.9147 50.6677 41.1667 50.6677C39.4187 50.6677 38 49.2491 38 47.5011C38 45.7531 39.4187 44.3344 41.1667 44.3344C42.9147 44.3344 44.3333 45.7531 44.3333 47.5011ZM61.4808 63.1634C58.3142 63.9741 55.1823 64.6897 50.9548 64.6897C39.9823 64.6897 28.5 58.1506 28.5 47.5169C28.5 37.6116 38.4433 29.5556 50.6667 29.5556C62.8393 29.5556 72.8333 37.6052 72.8333 47.5169C72.8333 52.5551 70.7877 55.5191 68.1435 58.6857L70.8003 67.1914L61.4808 63.1634ZM19.133 52.4759L5.2345 58.4799L9.21183 45.7752C5.662 41.5287 3.16667 37.3361 3.16667 30.8951C3.16667 17.3512 16.663 6.33439 33.25 6.33439C49.1403 6.33439 62.1553 16.4487 63.2288 29.2041C59.4605 27.4117 55.1507 26.3889 50.6667 26.3889C37.3698 26.3889 25.3333 35.2461 25.3333 47.5169C25.3333 49.7716 25.7988 51.9502 26.6348 54.0054C23.617 53.6064 21.7392 53.1441 19.133 52.4759ZM76 47.5169C76 40.6389 72.2032 34.8027 66.4937 31.0186L66.5 30.8951C66.5 14.7894 50.7047 3.16772 33.25 3.16772C15.6877 3.16772 0 14.8781 0 30.8951C0 36.5761 2.04567 42.1557 5.6715 46.4814L0.148833 64.1261L19.3958 55.8136C22.5055 56.6147 25.5138 57.1024 28.4208 57.3621C32.5913 63.5466 40.6948 67.8564 50.9548 67.8564C54.1817 67.8564 57.6207 67.4289 61.2212 66.5011L75.886 72.8344L71.6807 59.3919C74.4388 56.0922 76 51.8426 76 47.5169Z"/>
</symbol><symbol viewBox="0 0 76 76" id="icon_shield" xmlns="http://www.w3.org/2000/svg">
    <g clip-path="url(#fclip0_12001_151)">
        <path d="M25.3333 31.6656L34.8333 41.1656L50.6667 24.2767M9.5 6.33228H66.5V29.6221C66.114 47.2416 54.9204 62.9654 37.9934 69.6656C21.071 62.9621 9.88288 47.2388 9.5 29.6221V6.33228Z" stroke-width="3" stroke-linecap="square"/>
    </g>
    <defs>
        <clipPath id="fclip0_12001_151">
            <rect width="76" height="76"/>
        </clipPath>
    </defs>
</symbol></svg>