<svg width="204" height="257" viewBox="0 0 204 257" fill="none" xmlns="http://www.w3.org/2000/svg">
<path d="M1.92576 158.687C3.36804 162.514 7.16067 165.047 7.16067 165.047C7.16067 165.047 7.88715 166.297 8.46406 167.178C9.04097 168.058 8.28242 173.352 9.94905 178.277C11.605 183.202 14.6391 186.137 17.6091 186.365C20.5685 186.583 22.1603 184.68 22.1603 184.68C22.1603 184.68 22.5235 184.604 23.4637 184.463C24.4038 184.311 24.9807 182.332 24.9807 182.332C24.9807 182.332 27.2243 181.006 28.3033 180.343C29.3823 179.679 29.6067 178.212 29.6067 178.212C29.6067 178.212 31.8502 177.114 31.8502 176.005V174.168L32.2882 173.95L33.4421 174.32C33.4421 174.32 36.9142 173.809 37.7796 173.581C38.6449 173.363 42.6192 168.145 42.6192 168.145L43.3457 167.993C44.0721 167.841 45.7815 165.938 45.7815 165.938C45.7815 165.938 53.6766 161.818 57.5761 160.133C61.4756 158.448 83.7934 150.262 83.7934 150.262C83.7934 150.262 85.0968 150.262 85.6844 150.153C86.2827 150.045 90.3958 149.218 90.3958 149.218C90.3958 149.218 93.1628 150.153 93.6436 150.371C94.135 150.588 97.8101 153.295 99.6584 154.067C101.496 154.839 111.741 158.589 111.741 158.589C111.741 158.589 113.91 160.796 115.587 161.677C117.265 162.557 125.502 165.264 125.502 165.264C125.502 165.264 124.583 168.134 123.611 172.265C122.639 176.396 122.094 182.191 121.549 184.887C121.004 187.583 117.756 200.291 117.756 200.291C117.756 200.291 117.543 200.759 117.35 201.204C117.158 201.65 116.731 202.639 116.378 203.161C116.025 203.683 109.882 207.379 108.6 208.01C107.329 208.64 107.575 209.554 107.65 210.63C107.735 211.706 107.511 213.935 107.511 213.935C107.511 213.935 88.7185 219.066 83.2378 221.316C77.7679 223.577 60.1615 229.807 56.1018 229.861C52.042 229.915 47.2131 231.133 46.1875 233.938C45.1619 236.742 45.6426 242.037 52.3091 246.233C58.9756 250.429 64.9797 250.201 69.6484 249.875C72.6612 249.657 76.3684 248.592 79.3277 247.679L79.9901 248.592C79.2208 249.549 78.9217 250.777 79.317 251.886C79.3704 252.027 79.4345 252.169 79.4986 252.299L80.6524 254.832C81.3041 256.648 83.537 257.485 85.6416 256.713C87.7463 255.93 88.9215 253.832 88.2805 252.017C88.227 251.875 88.1629 251.745 88.0988 251.614L86.8702 248.896C86.3574 247.701 85.1288 246.983 83.74 246.918L83.772 246.331C89.883 244.548 143.813 228.002 143.813 228.002C143.813 228.002 145.672 227.632 148.429 226.98C148.92 227.339 149.379 227.719 149.796 228.1C149.251 228.98 149.08 230.013 149.422 230.97C149.476 231.111 149.54 231.253 149.604 231.383L150.758 233.916C151.409 235.731 153.642 236.569 155.747 235.797C157.851 235.014 159.027 232.916 158.386 231.1C158.332 230.959 158.268 230.829 158.204 230.698L156.975 227.98C156.388 226.611 154.86 225.85 153.225 226.013L153.151 225.828C159.689 224.132 167.787 221.664 170.853 219.131C176.323 214.609 181.088 207.608 180.383 201.933C180.319 201.454 180.223 201.009 180.084 200.596C180.084 200.596 180.105 200.596 180.105 200.607C181.462 201.215 186.718 200.161 186.718 200.161C186.718 200.161 187.263 201.433 187.744 201.868C188.235 202.313 189.047 202.476 193.812 200.161C198.577 197.845 203.459 194.323 203.94 193.769C204.431 193.214 201.771 189.192 200.799 187.865C199.827 186.539 197.605 186.05 197.605 186.05C197.006 184.669 194.784 184.126 194.784 184.126C194.784 184.126 192.348 180.538 191.376 179.277C190.404 178.016 187.797 178.005 187.797 178.005L186.825 175.853L186.611 174.581C186.611 174.581 186.985 174.255 187.477 173.918C187.968 173.592 188.609 163.992 188.673 163.112C188.727 162.231 186.943 161.351 186.943 161.351L187.263 157.883C187.263 157.883 187.861 156.067 188.566 153.36C189.272 150.664 186.398 146.577 185.799 144.87C185.201 143.163 184.336 130.976 184.496 129.596C184.656 128.215 183.246 128.498 182.658 128.106C182.06 127.726 183.032 127.171 183.855 126.237C184.678 125.302 182.445 124.03 182.445 124.03C182.445 124.03 181.686 121.986 182.007 120.671C182.327 119.344 180.383 118.681 180.65 118.192C180.917 117.692 178.054 114.333 175.832 112.071C173.61 109.81 171.387 110.256 169.496 110.419C167.605 110.582 166.249 110.473 164.838 110.582C163.428 110.691 159.86 113.887 159.86 113.887C159.86 113.887 152.328 102.2 148.001 98.7324C143.664 95.2645 136.623 92.4488 133.643 92.4488C130.662 92.4488 130.064 93.6664 128.771 90.8508C127.468 88.0351 124.818 87.4372 124.818 87.4372C126.891 85.9478 127.649 82.306 123.611 80.1752C119.562 78.0445 112.414 79.5121 112.414 79.5121C112.414 79.5121 105.63 72.9676 105.63 71.8696C105.63 70.7716 103.098 66.1405 103.098 66.1405C103.098 66.1405 101.143 62.5421 98.9106 60.4114C96.667 58.2806 93.2803 52.6928 93.2803 52.6928C93.2803 52.6928 92.7782 51.0077 92.415 50.0511C92.0517 49.0944 90.3958 47.1159 90.3958 47.1159C90.3958 47.1159 89.8936 44.7677 88.665 41.9738C87.4364 39.1799 83.099 30.983 78.6653 25.5147C74.221 20.0357 72.4902 18.4593 71.6249 16.7634C70.7595 15.0675 69.8194 15.2523 69.5309 14.9262C69.2425 14.6 68.6656 11.5778 68.1207 10.3277C67.5758 9.07747 65.1186 5.12034 65.1186 5.12034C65.1186 5.12034 64.905 4.13106 64.6272 3.7397C64.3601 3.35921 62.0738 1.54371 62.0738 1.54371L60.7811 0.434849C60.7811 0.434849 59.7021 0.402235 59.3709 0.652273C59.0504 0.902311 59.0183 1.69591 59.0183 1.69591C59.0183 1.69591 58.0141 0.478333 57.2022 0.347879C56.3902 0.217424 55.3646 0.728372 55.3646 0.728372L55.012 1.96769C55.012 1.96769 54.6595 1.55458 54.1467 1.41326C53.6339 1.27193 52.5762 1.60894 52.5228 1.88072C52.4694 2.1525 52.6296 2.81564 52.6296 2.81564L51.6254 1.54371L50.0549 0.44572C50.0549 0.44572 49.1896 0 48.7302 0C48.2708 0 46.8392 0.663144 46.8392 0.663144C46.8392 0.663144 46.4866 1.29367 46.7537 1.84811C47.0208 2.40254 48.0571 2.72868 48.1319 2.76129C48.2174 2.7939 50.4609 5.8161 50.4609 5.8161L52.0527 8.65349L52.886 11.3713C52.886 11.3713 50.354 8.65349 47.9075 8.43606C45.4503 8.21864 44.6918 9.20792 44.9055 9.71887C45.1191 10.2298 47.0742 11.1865 47.0742 11.1865C47.0742 11.1865 48.1532 12.3606 48.5592 12.6215C48.9545 12.8824 52.4907 15.448 52.4907 15.448C52.4907 15.448 57.9073 19.5247 58.3026 19.7095C58.6979 19.8943 62.2341 21.0684 62.2341 21.0684L66.9242 26.1779C66.9242 26.1779 73.1526 39.4625 74.456 41.9955C75.7594 44.5285 82.3618 56.4977 82.3618 56.4977C82.3618 56.4977 82.4686 59.7482 82.522 60.9658C82.5755 62.1834 85.2357 69.0648 85.2357 69.0648V69.728L88.3766 79.1316L88.4514 81.2623C88.4514 81.2623 85.5668 84.0562 85.1288 84.8607C84.6908 85.6652 82.49 91.6226 82.49 91.6226C82.49 91.6226 82.2016 95.0797 82.8105 97.3191C83.4195 99.5586 84.2528 101.026 84.2528 101.026L84.4664 101.352L84.2848 101.537C84.2848 101.537 84.1032 103.266 84.6053 103.559C85.1075 103.853 86.8168 104.244 86.8168 104.244C86.8168 104.244 87.7142 106.581 88.0347 107.277C88.3552 107.962 90.2035 109.18 90.2035 109.18C90.2035 109.18 91.1009 109.951 91.4214 110.06C91.7419 110.169 93.2376 110.723 93.2376 110.723C93.2376 110.723 93.9107 111.463 94.0495 111.637C94.1884 111.8 95.4811 118.138 95.62 118.442C95.7589 118.746 96.432 119.127 97.0836 119.159C97.7353 119.192 98.5152 118.801 98.5152 118.801C98.5152 118.801 98.6541 119.714 98.761 119.931C98.8678 120.149 100.524 120.203 100.524 120.203C101.443 121.855 103.75 121.421 103.75 121.421C103.75 121.421 105.321 124.236 105.588 124.562C105.855 124.889 106.346 125.117 106.891 125.443C107.436 125.769 112.094 129.748 112.094 129.748L101.314 125.563L95.8444 125.182C95.8444 125.182 88.5262 123.03 86.9023 122.54C85.2784 122.04 83.4942 122.214 83.4942 122.214L79.5414 121.442C79.5414 121.442 76.9453 121.66 75.6419 122.214C74.3385 122.769 70.9305 126.4 70.9305 126.4C70.9305 126.4 69.2531 127.443 68.281 128.324C67.3088 129.204 67.6293 130.422 67.6293 130.422C67.6293 130.422 65.5139 133.401 64.1571 133.455C62.8003 133.509 59.4991 135.053 59.2854 135.379C59.0718 135.705 44.7132 144.359 44.7132 144.359C44.7132 144.359 34.8523 147.772 33.8267 148.381C32.8011 148.99 29.9806 151.197 29.9806 151.197C29.9806 151.197 28.0255 151.306 27.4914 151.86C26.9465 152.414 25.6004 152.632 25.6004 152.632C25.6004 152.632 23.7628 152.306 22.5128 151.534C21.2629 150.762 12.9832 140.456 12.9832 140.456C12.9832 140.456 12.9832 138.532 12.1712 137.695C11.3593 136.869 9.08369 134.499 7.24612 134.607C5.40856 134.716 2.26763 136.532 0.686474 141.391C-0.894684 146.25 0.558251 154.882 2.00052 158.698L1.92576 158.687ZM126.282 208.021C127.094 207.031 127.254 203.998 127.254 203.998C127.254 203.998 128.557 201.357 129.636 198.541C130.715 195.725 136.132 182.832 136.73 180.962C137.328 179.092 137.863 172.037 137.863 172.037L138.675 167.297C138.675 167.297 141.003 167.243 142.253 167.025C143.503 166.808 149.732 164.655 150.106 164.547C150.48 164.438 158.77 163.992 159.753 163.829C160.725 163.666 169.016 159.307 169.016 159.307C169.016 159.307 170.319 160.524 170.426 160.959C170.533 161.405 169.4 164.427 169.4 164.427C169.4 164.427 169.561 168.504 169.614 168.667C169.667 168.83 169.721 171.146 169.828 171.428C169.934 171.711 175.949 174.461 175.949 174.461C175.949 174.461 175.575 176.451 175.575 177.603C175.575 178.755 175.629 181.625 175.629 181.788C175.629 181.952 175.522 184.55 175.736 186.148C175.949 187.746 177.039 191.279 177.253 192.823C177.466 194.366 178.332 196.182 178.332 196.182C178.332 196.182 178.438 197.204 178.716 198.269C176.355 195.606 171.964 194.986 168.684 195.791C164.24 196.889 159.315 199.041 152.98 201.302C146.644 203.564 126.271 208.032 126.271 208.032L126.282 208.021Z" fill="#2A2A2A"/>
</svg>
