<?xml version="1.0" encoding="utf-8"?><svg viewBox="0 0 76 76" xmlns="http://www.w3.org/2000/svg" xmlns:xlink="http://www.w3.org/1999/xlink"><style>:root>svg{display:none}:root>svg:target{display:block}</style><svg fill="none" viewBox="0 0 18 28" id="arrow" xmlns="http://www.w3.org/2000/svg"><path d="M17 27 1 14 17 1" stroke="#121212" stroke-width="2" stroke-linecap="round" stroke-linejoin="round"/></svg><svg fill="none" viewBox="0 0 76 76" id="icon_cap" xmlns="http://www.w3.org/2000/svg"><path fill-rule="evenodd" clip-rule="evenodd" d="m69.667 30.843-6.334 3.23V57c-3.188 6.463-17.752 9.5-26.916 9.5-10.055 0-23.399-3.148-26.917-9.5V32.313L0 26.309 38 9.5l34.833 19.732V57L76 66.5h-9.5l3.167-9.5V30.843Zm-57 3.468v21.764c3.033 4.054 13.353 7.258 23.75 7.258 9.164 0 20.865-3.036 23.75-7.185V35.685l-25.09 12.79-22.41-14.164ZM6.71 26.803l28.535 18.03 30.904-15.75L37.825 13.04 6.71 26.803Z" fill="#121212"/></svg><svg fill="none" viewBox="0 0 76 76" id="icon_desk" xmlns="http://www.w3.org/2000/svg"><g clip-path="url(#ca)"><path fill-rule="evenodd" clip-rule="evenodd" d="M69.667 66.5A6.335 6.335 0 0 1 76 72.833V76H57v-3.167a6.336 6.336 0 0 1 6.333-6.333h6.334Zm-22.167 0a6.336 6.336 0 0 1 6.333 6.333V76h-19v-3.167a6.336 6.336 0 0 1 6.334-6.333H47.5Zm22.167 3.167h-6.334a3.17 3.17 0 0 0-3.166 3.166h12.666a3.17 3.17 0 0 0-3.166-3.166Zm-22.167 0h-6.333A3.17 3.17 0 0 0 38 72.833h12.667a3.17 3.17 0 0 0-3.167-3.166Zm-21.4-3.851a3.963 3.963 0 0 1-3.978 3.832c-2.026 0-3.733-1.574-3.97-3.661l-1.286-12.774-1.004 12.726c-.162 2.078-1.913 3.709-3.98 3.709a3.982 3.982 0 0 1-3.997-3.832l-.83-20.444-.975 1.758c-.763 1.383-2.533 2.02-4.006 1.453A3.225 3.225 0 0 1 0 45.572c0-.295.038-.596.123-.897l3.592-12.977a4.46 4.46 0 0 1 4.278-3.233h12.97c1.618 0 3.205-.564 4.07-1.045 2.289-1.276 7.723-4.335 9.93-5.678 1.248-.77 3.005-.465 3.927.688 1.013 1.253.905 3.008-.234 4.107l-9.652 9.202a6.38 6.38 0 0 0-1.954 4.373c-.194 4.424-.95 25.704-.95 25.704ZM7.993 31.632c-.57 0-1.077.383-1.232.93-.934 3.294-3.202 11.61-3.591 12.978l4.785-8.211c.544-.934 1.973-.57 2.014.5l1.08 27.857c.031.88 1.583.909 1.656.006 0 0 .851-10.608.975-12.489.13-1.897 1.422-3.22 3.141-3.22 1.732.006 3.066 1.314 3.259 3.179.114 1.105 1.035 10.827 1.219 12.47.136 1.197 1.6 1.033 1.637.07 0 0 .757-21.296.95-25.726.105-2.505 1.146-4.823 2.93-6.526l9.642-9.197c-2.093 1.558-7.578 4.65-9.883 5.932-1.254.7-3.389 1.447-5.612 1.447H7.993ZM66.5 50.667a7.49 7.49 0 0 0-7.486 7.486c0 4.132 3.353 7.489 7.486 7.489 4.132 0 7.486-3.357 7.486-7.49a7.49 7.49 0 0 0-7.486-7.485Zm-22.167 0a7.49 7.49 0 0 0-7.486 7.486c0 4.132 3.354 7.489 7.486 7.489 4.133 0 7.486-3.357 7.486-7.49a7.49 7.49 0 0 0-7.486-7.485ZM66.5 53.833a4.325 4.325 0 0 1 4.32 4.32 4.325 4.325 0 0 1-4.32 4.322 4.325 4.325 0 0 1-4.32-4.322 4.325 4.325 0 0 1 4.32-4.32Zm-22.167 0a4.325 4.325 0 0 1 4.32 4.32 4.325 4.325 0 0 1-4.32 4.322 4.325 4.325 0 0 1-4.319-4.322 4.325 4.325 0 0 1 4.32-4.32ZM76 47.5H29.583v-3.167h24.25v-3.166h9.5v3.166h9.5V3.167H3.167v22.166L0 34.833V0h76v47.5Zm-19-19H44.333v-3.167H57V28.5ZM16.698 12.667A7.336 7.336 0 0 0 9.367 20a7.336 7.336 0 0 0 7.33 7.334A7.338 7.338 0 0 0 24.033 20a7.338 7.338 0 0 0-7.334-7.334Zm0 3.166a4.17 4.17 0 0 1 4.167 4.168 4.17 4.17 0 0 1-4.167 4.167 4.17 4.17 0 0 1-4.164-4.167 4.17 4.17 0 0 1 4.164-4.168ZM66.5 22.167H44.333V19H66.5v3.167Zm0-6.334H44.333v-3.166H66.5v3.166Z" fill="#121212"/></g><defs><clipPath id="ca"><path fill="#fff" d="M0 0h76v76H0z"/></clipPath></defs></svg><svg fill="none" viewBox="0 0 76 76" id="icon_i" xmlns="http://www.w3.org/2000/svg"><g clip-path="url(#da)"><rect x="6.06" y="6.06" width="63.88" height="63.88" rx="6.5" stroke="#121212" stroke-width="3"/><path d="M37.66 28.58c-.42 0-.78-.15-1.08-.45-.3-.3-.45-.66-.45-1.08v-.12c0-.42.15-.78.45-1.08.3-.3.66-.45 1.08-.45h.18c.42 0 .78.15 1.08.45.3.3.45.66.45 1.08v.12c0 .42-.15.78-.45 1.08-.3.3-.66.45-1.08.45h-.18Zm.06 18.57c-.38 0-.7-.13-.96-.39s-.39-.58-.39-.96V32.93c0-.38.13-.7.39-.96.26-.28.58-.42.96-.42.4 0 .73.13.99.39s.39.59.39.99V45.8c0 .38-.14.7-.42.96-.26.26-.58.39-.96.39Z" fill="#121212"/></g><defs><clipPath id="da"><path fill="#fff" d="M0 0h76v76H0z"/></clipPath></defs></svg><svg fill="none" viewBox="0 0 76 76" id="icon_message" xmlns="http://www.w3.org/2000/svg"><path fill-rule="evenodd" clip-rule="evenodd" d="M63.333 47.501a3.168 3.168 0 0 1-6.333 0 3.168 3.168 0 0 1 6.333 0Zm-9.5 0a3.168 3.168 0 0 1-6.333 0 3.168 3.168 0 0 1 6.333 0Zm-9.5 0a3.168 3.168 0 0 1-6.333 0 3.168 3.168 0 0 1 6.333 0Zm17.148 15.662c-3.167.811-6.299 1.527-10.526 1.527-10.973 0-22.455-6.54-22.455-17.173 0-9.905 9.943-17.961 22.167-17.961 12.172 0 22.166 8.05 22.166 17.96 0 5.04-2.045 8.003-4.69 11.17L70.8 67.19l-9.32-4.028ZM19.133 52.476 5.235 58.48l3.977-12.705c-3.55-4.246-6.045-8.439-6.045-14.88 0-13.544 13.496-24.56 30.083-24.56 15.89 0 28.905 10.114 29.979 22.87a29.34 29.34 0 0 0-12.562-2.816c-13.297 0-25.334 8.857-25.334 21.128 0 2.255.466 4.433 1.302 6.488-3.018-.399-4.896-.86-7.502-1.53ZM76 47.516c0-6.877-3.797-12.713-9.506-16.497l.006-.124c0-16.106-15.795-27.727-33.25-27.727C15.688 3.168 0 14.878 0 30.895c0 5.681 2.046 11.26 5.671 15.586L.15 64.126l19.247-8.312a56.036 56.036 0 0 0 9.025 1.548c4.17 6.185 12.274 10.494 22.534 10.494 3.227 0 6.666-.427 10.266-1.355l14.665 6.333-4.205-13.442c2.758-3.3 4.319-7.55 4.319-11.875Z" fill="#121212"/></svg><svg fill="none" viewBox="0 0 76 76" id="icon_shield" xmlns="http://www.w3.org/2000/svg"><g clip-path="url(#fa)"><path d="m25.333 31.666 9.5 9.5 15.834-16.89M9.5 6.333h57v23.29c-.386 17.62-11.58 33.343-28.507 40.044C21.071 62.962 9.883 47.239 9.5 29.622V6.332Z" stroke="#121212" stroke-width="3" stroke-linecap="square"/></g><defs><clipPath id="fa"><path fill="#fff" d="M0 0h76v76H0z"/></clipPath></defs></svg></svg>