<svg width="101" height="36" viewBox="0 0 101 36" fill="none" xmlns="http://www.w3.org/2000/svg">
<path d="M101 18C101 27.1127 78.3904 34.5 50.5 34.5C22.6096 34.5 0 27.1127 0 18C0 8.8873 22.6096 1.5 50.5 1.5C78.3904 1.5 101 8.8873 101 18Z" fill="#F97700"/>
<path d="M15.2321 6.3854C15.362 6.5827 15.4512 6.72246 15.4999 6.80467C15.5486 6.87866 15.6337 6.9732 15.7554 7.08829C15.8771 7.20339 15.9704 7.28149 16.0353 7.32259C16.0921 7.35548 16.2382 7.42124 16.4735 7.5199C16.7006 7.61855 16.8994 7.69665 17.0698 7.75419C17.2401 7.81174 17.5403 7.91039 17.9703 8.05015C18.2218 8.12414 18.5788 8.23512 19.0412 8.3831C19.4956 8.52285 19.8201 8.62151 20.0148 8.67905C21.0614 8.97501 22.1486 9.22575 23.2763 9.43127C24.3959 9.62858 25.5926 9.77244 26.8663 9.86287C28.1401 9.94508 29.2435 9.88754 30.1765 9.69023C31.077 9.50115 31.8681 9.15176 32.5496 8.64206C33.2311 8.12414 33.6529 7.45413 33.8152 6.63203C33.8476 6.26209 33.8558 5.98668 33.8395 5.80582C33.8071 5.04949 33.4866 4.35482 32.8781 3.7218C32.2778 3.08879 31.6044 2.71473 30.858 2.59964C28.5295 2.21325 26.3268 2.79283 24.2499 4.33838C24.0957 4.46169 23.9416 4.62611 23.7874 4.83163C23.6251 5.03716 23.4953 5.21802 23.398 5.37422C23.3006 5.53042 23.2438 5.61263 23.2276 5.62085C23.1627 5.6784 23.0532 5.66606 22.899 5.58385C22.7449 5.50164 22.6313 5.42355 22.5583 5.34956C22.2256 5.02894 22.0593 4.67955 22.0593 4.30138C22.0512 3.91499 22.1567 3.56971 22.3757 3.26554C22.5948 2.96136 22.8787 2.68596 23.2276 2.43933C24.047 1.87208 24.8381 1.43637 25.6007 1.13219C26.3633 0.828017 27.2071 0.634824 28.132 0.552614C28.9271 0.486846 29.6694 0.482736 30.359 0.540283C31.0486 0.59783 31.6855 0.745807 32.2697 0.984216C32.8619 1.22262 33.3852 1.54324 33.8395 1.94607C34.302 2.34068 34.6995 2.85038 35.0322 3.47517C35.3648 4.09175 35.6163 4.80697 35.7867 5.62085C35.884 6.50049 35.8232 7.28971 35.6041 7.98849C35.3932 8.67905 35.0687 9.25041 34.6306 9.70257C34.1925 10.1465 33.6448 10.5206 32.9877 10.8247C32.3305 11.1207 31.6368 11.3385 30.9067 11.4783C30.1765 11.6098 29.3733 11.692 28.4971 11.7249C27.629 11.7578 26.8014 11.7496 26.0145 11.7003C25.2275 11.6509 24.4081 11.5728 23.5562 11.466C22.7043 11.3509 21.9741 11.2358 21.3657 11.1207C20.7491 11.0056 20.1406 10.8823 19.5402 10.7507C17.7148 10.2493 16.7331 9.99852 16.5951 9.99852C16.587 9.99852 16.5911 10.0314 16.6073 10.0972C16.6235 10.1547 16.6519 10.2287 16.6925 10.3191C16.725 10.4178 16.7858 10.5041 16.8751 10.5781C16.9562 10.6439 17.0292 10.6768 17.0941 10.6768C17.2401 10.6768 17.4065 10.8042 17.5931 11.059C17.7797 11.2974 17.7999 11.5605 17.6539 11.8482C17.4998 12.136 17.1955 12.4114 16.7412 12.6744L16.0962 13.0321L16.5221 14.4872C18.2827 20.9078 19.3698 25.7746 19.7836 29.0876C19.8728 29.7207 19.9093 30.1358 19.8931 30.3331C19.8769 30.5304 19.7917 30.7565 19.6376 31.0113C19.4834 31.2498 19.236 31.4882 18.8952 31.7266C18.5463 31.9732 18.2705 32.0965 18.0677 32.0965C17.9298 32.0965 17.7878 32.0102 17.6417 31.8376C17.4551 31.7389 17.2969 31.0936 17.1671 29.9015C17.0617 28.915 16.8629 27.6243 16.5708 26.0294C16.368 25.01 16.0719 23.7358 15.6824 22.2067C15.2849 20.6776 14.4371 17.5248 13.139 12.7484C12.4169 10.1506 12.0396 8.76948 12.0072 8.60506C11.9829 8.48175 11.3622 8.20224 10.1452 7.76652C8.92016 7.33081 8.16158 7.11296 7.86951 7.11296C7.52065 7.11296 7.28537 7.26093 7.16367 7.55689C7.04198 7.84462 7.06226 8.1899 7.22452 8.59273C7.37867 8.98734 7.63829 9.32851 8.00338 9.61624C8.14942 9.73956 8.4496 9.92864 8.90393 10.1835C9.35015 10.4301 9.8126 10.6603 10.2913 10.8741C10.7537 11.0878 11.1797 11.3139 11.5691 11.5523C11.9585 11.7825 12.1735 11.9305 12.2141 11.9962C12.3358 12.2346 12.3114 12.5059 12.1411 12.8101C11.9707 13.1143 11.7192 13.3362 11.3865 13.476C10.8673 13.6733 10.3927 13.7308 9.96269 13.6486C9.5327 13.5582 8.81063 13.2581 7.79649 12.7484C6.40916 12.0661 5.4153 11.3838 4.81493 10.7014C4.20645 10.0109 3.93872 9.26274 4.01173 8.45709C4.06853 7.79941 4.29569 7.21983 4.69324 6.71835C5.08266 6.20865 5.58162 5.82637 6.1901 5.57152C6.79858 5.31667 7.49225 5.17281 8.27111 5.13992C9.04997 5.10704 9.85722 5.23446 10.6929 5.5222L11.8612 5.87981L12.6887 5.5222C13.2647 5.23446 13.7312 5.15225 14.0882 5.27557C14.4371 5.39888 14.8184 5.76883 15.2321 6.3854Z" fill="white"/>
<path d="M38.318 14.4625C38.4721 14.4872 38.6263 14.4913 38.7804 14.4748C38.9346 14.4584 39.0806 14.4543 39.2185 14.4625C39.3646 14.4625 39.4903 14.4748 39.5958 14.4995C39.7012 14.5159 39.7783 14.5735 39.827 14.6721C39.8757 14.7626 39.8879 14.8941 39.8635 15.0668C39.7743 15.5518 39.5714 15.967 39.255 16.3122C38.9386 16.6493 38.5938 16.8795 38.2206 17.0028C37.8474 17.1261 37.4783 17.1754 37.1132 17.1508C36.7481 17.1261 36.4601 17.0233 36.2491 16.8425C36.1274 16.7521 36.0138 16.637 35.9084 16.4972C35.811 16.3492 35.7339 16.2218 35.6772 16.1149C35.6285 15.9998 35.5717 15.893 35.5068 15.7943C35.4419 15.6957 35.3851 15.6504 35.3364 15.6587C35.2877 15.6587 35.2188 15.6998 35.1295 15.782C34.7563 16.4643 34.3709 17.5577 33.9734 19.0622C33.584 20.5666 33.3568 21.7463 33.2919 22.6013C33.2757 22.8315 33.2676 23.0288 33.2676 23.1932C33.2757 23.3494 33.2797 23.4892 33.2797 23.6125C33.2878 23.7276 33.3081 23.8755 33.3406 24.0564C33.3811 24.2373 33.4177 24.4017 33.4501 24.5497C33.4826 24.6976 33.5353 24.9443 33.6083 25.2895C33.6894 25.6348 33.7665 25.9678 33.8395 26.2884C33.9693 26.7899 33.9085 27.1269 33.657 27.2996C33.4055 27.4722 33.0161 27.5462 32.4887 27.5215C32.0587 27.4969 31.7464 27.4434 31.5516 27.3612C31.3569 27.2872 31.1541 27.0982 30.9432 26.794C30.5862 26.2761 30.2373 24.4757 29.8966 21.3928C29.5477 18.3017 29.4341 16.3369 29.5558 15.4984C29.6288 15.0544 29.6978 14.7831 29.7627 14.6845C29.8276 14.5776 29.998 14.4625 30.2738 14.3392C30.6714 14.1994 31.0527 14.1624 31.4178 14.2282C31.7748 14.2858 32.0547 14.4337 32.2575 14.6721C32.4603 14.9106 32.4968 15.1695 32.367 15.449C32.2534 15.9176 32.2534 17.2412 32.367 19.4198C32.3751 19.3704 32.3913 19.2964 32.4157 19.1978C32.44 19.0909 32.4563 19.0128 32.4644 18.9635L32.513 18.8155C32.8376 17.3686 33.1215 16.2711 33.3649 15.523C33.4461 15.2764 33.511 15.0791 33.5596 14.9311C33.6164 14.7831 33.6894 14.6064 33.7787 14.4009C33.876 14.1871 33.9734 14.0186 34.0708 13.8953C34.1681 13.7719 34.2858 13.6445 34.4237 13.513C34.5697 13.3815 34.736 13.2828 34.9226 13.217C35.1173 13.143 35.3283 13.0978 35.5555 13.0814C35.596 13.0814 35.6528 13.0773 35.7258 13.0691C35.7988 13.0526 35.8678 13.0444 35.9327 13.0444C35.9976 13.0444 36.0544 13.0567 36.1031 13.0814C36.3871 13.2129 36.7481 13.4678 37.1862 13.8459C37.6243 14.2159 38.0016 14.4214 38.318 14.4625Z" fill="white"/>
<path d="M42.407 23.9824C42.7883 25.7088 42.9465 26.7036 42.8816 26.9666C42.7842 27.353 42.4678 27.6161 41.9324 27.7558C41.3969 27.9038 40.9669 27.8422 40.6424 27.5709C40.5044 27.4722 40.3787 27.2091 40.2651 26.7817C40.1434 26.3624 39.9528 25.5238 39.6931 24.266C38.8007 19.7527 38.3017 16.9576 38.1963 15.8806C38.1638 15.5847 38.1719 15.3874 38.2206 15.2887C38.2612 15.1818 38.4032 15.0421 38.6465 14.8695C38.9305 14.6886 39.2997 14.6023 39.754 14.6105C40.2083 14.6187 40.5288 14.7215 40.7154 14.9188C40.8777 15.0503 41.0277 15.6751 41.1657 16.7932C41.4577 18.9635 41.8715 21.3599 42.407 23.9824ZM39.7662 12.5758C39.1982 12.7649 38.6831 12.7114 38.2206 12.4155C38.0016 12.2675 37.8555 12.1195 37.7825 11.9716C37.7014 11.8236 37.6243 11.5358 37.5513 11.1084C37.4215 10.3931 37.3282 9.49293 37.2714 8.40776C37.2227 7.53634 37.2146 7.00608 37.247 6.817C37.2714 6.62792 37.3809 6.43473 37.5756 6.23742C37.7379 6.073 37.8961 5.96613 38.0502 5.9168C38.2044 5.85926 38.4356 5.83048 38.7439 5.83048C39.393 5.83048 39.8838 6.02779 40.2164 6.42239C40.541 6.80878 40.5491 7.21572 40.2408 7.64321C39.9325 8.03782 39.9244 9.02433 40.2164 10.6028C40.33 11.2522 40.3544 11.7167 40.2895 11.9962C40.2245 12.2757 40.0501 12.4689 39.7662 12.5758Z" fill="white"/>
<path d="M54.4671 23.0575C54.5563 23.3864 54.2967 24.1838 53.6882 25.4499C53.0798 26.7077 52.4916 27.6613 51.9236 28.3108C51.4531 28.8616 50.873 29.2644 50.1834 29.5192C49.5019 29.7741 48.8609 29.8316 48.2606 29.6919C47.5547 29.5192 46.8976 29.1329 46.2891 28.5327C45.6887 27.9326 45.1857 27.1886 44.78 26.3007C44.3744 25.4046 44.0499 24.3935 43.8065 23.2672C43.555 22.1409 43.4373 20.9694 43.4536 19.7527C43.4617 18.5278 43.5834 17.2782 43.8186 16.0039C44.1269 14.4913 44.5245 13.3732 45.0113 12.6498C45.4981 11.9263 46.1228 11.5194 46.8854 11.429C48.4269 11.2563 49.5424 12.1154 50.2321 14.0062C50.7188 15.3298 50.9703 16.9494 50.9866 18.8648C51.0028 20.7803 50.7756 21.9806 50.3051 22.4656C50.0536 22.7287 49.7088 22.8849 49.2706 22.9342C48.8325 22.9753 48.4877 22.889 48.2362 22.6753C48.0496 22.5355 47.9482 22.3916 47.932 22.2437C47.9158 22.0875 47.9563 21.6312 48.0537 20.8749C48.1754 19.6993 48.2038 18.758 48.1389 18.051C48.0902 17.3029 47.9807 16.5095 47.8103 15.671C47.6399 14.8242 47.4898 14.3063 47.36 14.1172C47.2708 13.9857 47.1896 13.9898 47.1166 14.1296C47.0517 14.2447 46.9422 14.5571 46.788 15.0668C46.212 16.9083 45.9848 18.8196 46.1065 20.8009C46.2282 22.7739 46.6785 24.4592 47.4574 25.8568C47.6845 26.2678 47.9928 26.683 48.3823 27.1023C48.7798 27.5298 49.0962 27.7805 49.3315 27.8545C49.583 27.9449 49.9238 27.6449 50.3537 26.9543C50.7837 26.272 51.2218 25.3265 51.6681 24.1181C51.8952 23.5261 52.1183 23.1151 52.3374 22.8849C52.5646 22.6465 52.8647 22.5067 53.238 22.4656C53.96 22.441 54.3697 22.6383 54.4671 23.0575Z" fill="white"/>
<path d="M68.7908 33.7366C69.0828 33.9339 69.2248 34.1641 69.2167 34.4272C69.2086 34.6902 69.0463 34.9328 68.7299 35.1547C68.4216 35.3849 68.0606 35.5 67.6468 35.5C67.2249 35.5 66.8152 35.3397 66.4177 35.0191C66.0283 34.6985 65.4644 34.0531 64.7261 33.083C62.8925 31.258 61.3186 29.6754 60.0043 28.3354C58.6981 26.9954 57.7691 26.0377 57.2174 25.4622C56.6738 24.8867 56.2925 24.4962 56.0735 24.2907L55.1851 23.4028L55.2581 23.9331L55.8544 27.1393C55.6922 27.5421 55.319 27.8545 54.7348 28.0765C54.1507 28.3066 53.7653 28.2902 53.5787 28.0271C53.4895 27.9367 53.384 27.5339 53.2623 26.8186C52.5321 23.3165 52.1508 21.4545 52.1183 21.2325C52.0697 21.0105 51.9967 20.8379 51.8993 20.7146C51.8019 20.5913 51.6397 20.4679 51.4125 20.3446C50.8284 19.9993 50.5485 19.6541 50.5728 19.3088C50.5728 19.2348 50.7472 19.058 51.0961 18.7785L51.5951 18.3099L49.8913 8.35844C49.656 6.46761 49.5019 4.88507 49.4289 3.61082C49.3477 2.33657 49.3639 1.56791 49.4775 1.30483C49.5992 1.02532 49.8467 0.815686 50.2199 0.675929C50.585 0.527951 50.9582 0.486846 51.3395 0.552614C51.7127 0.610161 51.9723 0.762249 52.1183 1.00888C52.1751 1.13219 52.2563 1.46103 52.3617 1.9954C52.4672 2.52154 52.5605 3.07646 52.6416 3.66014C52.8688 5.21391 53.0067 6.03601 53.0554 6.12644C53.1528 6.36485 53.1771 6.63614 53.1284 6.94032C53.0797 7.23627 52.9743 7.45413 52.812 7.59388C52.6579 7.69254 52.6376 8.14058 52.7512 8.93801C52.8566 9.73545 53.2988 12.3538 54.0777 16.7932C54.1263 17.0727 54.175 17.3686 54.2237 17.681C54.2724 17.9934 54.3089 18.2401 54.3332 18.4209C54.3576 18.6018 54.3738 18.7045 54.3819 18.7292C54.4874 19.0827 54.8281 19.0169 55.4042 18.5319C55.6394 18.3264 55.7855 18.1537 55.8423 18.014C55.8991 17.8742 55.9437 17.5331 55.9761 16.9905C56.0167 16.5136 56.0207 16.1766 55.9883 15.9793C55.9558 15.782 55.8625 15.5806 55.7084 15.375C55.4812 15.0133 55.3798 14.6393 55.4042 14.2529C55.4285 13.8583 55.5705 13.5171 55.8301 13.2294C56.0897 12.9416 56.471 12.769 56.974 12.7114C57.477 12.6457 57.8503 12.7238 58.0936 12.9457C58.4425 13.2499 58.6575 14.0474 58.7386 15.338C58.8279 16.6287 58.7305 17.5824 58.4466 18.1989C58.0977 19.021 57.4081 19.6623 56.3777 20.1227C55.9477 20.3035 55.7327 20.4392 55.7327 20.5296C55.7327 20.5707 56.1222 20.9571 56.901 21.6888C57.2255 21.9929 57.7529 22.5232 58.4831 23.2795C59.2214 24.0358 60.3531 25.1868 61.8784 26.7323C63.4118 28.2861 65.1236 29.9961 67.014 31.8622C67.3629 32.2897 67.7117 32.6884 68.0606 33.0584C68.4176 33.4365 68.661 33.6626 68.7908 33.7366Z" fill="white"/>
<path d="M70.6405 25.0183C70.9651 25.2567 71.2166 25.454 71.3951 25.6102C71.5817 25.7664 71.7683 25.9637 71.9549 26.2021C72.1415 26.4323 72.2469 26.6501 72.2713 26.8556C72.2956 27.0612 72.2551 27.2955 72.1496 27.5585C72.0441 27.8216 71.8494 28.097 71.5654 28.3847C70.2917 29.3959 68.5879 29.7823 66.4542 29.5439C65.8051 29.4535 65.2453 29.3302 64.7748 29.174C64.3042 29.026 63.785 28.7958 63.2171 28.4834C62.568 28.1217 62.1705 27.8833 62.0244 27.7682C61.708 27.4804 61.5985 27.0817 61.6959 26.572C61.7283 26.3994 61.7851 26.1939 61.8662 25.9554C61.9717 25.6924 62.0731 25.5444 62.1705 25.5115C62.2597 25.4786 62.4058 25.5691 62.6086 25.7828C62.9656 26.1856 63.3306 26.5104 63.7038 26.757C64.0852 27.0036 64.5354 27.2091 65.0547 27.3736C66.7747 27.9408 68.2796 28.0148 69.5696 27.5955C69.6589 27.4887 69.6264 27.3448 69.4723 27.1639C69.3343 27.0077 69.0504 26.7734 68.6204 26.461C68.1904 26.1486 67.9227 25.9472 67.8172 25.8568C67.2817 25.3964 66.6367 24.899 65.8822 24.3647C64.8032 23.633 63.9188 22.9425 63.2292 22.293C62.5315 21.6353 61.8541 20.8173 61.1969 19.839C60.2233 18.2359 59.7365 16.8343 59.7365 15.634C59.7365 14.4255 60.2233 13.5829 61.1969 13.1061C62.3003 12.5717 63.5213 12.436 64.86 12.6991L66.0039 12.9457L65.9309 11.8112C65.8822 11.2933 65.87 10.9522 65.8944 10.7877C65.9187 10.6151 66.012 10.4425 66.1743 10.2698C66.5069 9.91631 66.9613 9.74367 67.5373 9.75189C68.1133 9.76011 68.5149 9.94919 68.7421 10.3191C68.8475 10.4753 68.9044 10.611 68.9125 10.7261C68.9206 10.8412 68.88 11.0261 68.7908 11.281C68.6285 12.2511 68.6366 13.2047 68.8151 14.1419L68.8881 14.4378C68.9449 14.6598 69.1559 15.2928 69.5209 16.3369C69.9428 17.4796 70.2917 18.5155 70.5675 19.4444C70.8109 20.3323 70.9367 20.9489 70.9448 21.2941C70.961 22.1162 70.5919 22.4328 69.8373 22.2437L69.6183 22.1697L69.4966 22.1204C69.0504 21.9642 68.7583 21.7792 68.6204 21.5654C68.4825 21.3517 68.3729 20.99 68.2918 20.4803C68.2026 19.8226 67.9308 19.0457 67.4764 18.1496C67.2655 17.7057 67.1276 17.418 67.0627 17.2864C67.0059 17.1549 66.8842 16.9288 66.6976 16.6082C66.5191 16.2876 66.3609 16.0574 66.223 15.9176C66.0932 15.7696 65.9106 15.597 65.6753 15.3997C65.44 15.1942 65.1764 15.0092 64.8843 14.8448C64.4787 14.6393 64.0284 14.5077 63.5335 14.4502C63.0467 14.3926 62.7222 14.4378 62.5599 14.5858C62.3814 14.7338 62.3125 15.0626 62.353 15.5723C62.3855 16.082 62.5072 16.5959 62.7181 17.1138C62.8236 17.4015 62.998 17.7797 63.2414 18.2483C63.5335 18.7909 63.8621 19.3047 64.2271 19.7897C64.6003 20.2665 64.9573 20.6776 65.2981 21.0229C65.6388 21.3681 66.0526 21.734 66.5394 22.1204C67.0262 22.4985 67.448 22.8109 67.805 23.0575C68.162 23.3042 68.6326 23.6289 69.2167 24.0317C69.8008 24.4263 70.2755 24.7552 70.6405 25.0183Z" fill="white"/>
<path d="M77.918 11.1577C78.1208 11.3961 78.275 11.6879 78.3804 12.0332C78.4778 12.3292 78.4372 12.4689 78.2587 12.4525C78.1614 12.436 78.0397 12.3826 77.8937 12.2922C77.6908 12.1689 77.4677 12.0579 77.2243 11.9592C76.9809 11.8606 76.774 11.7825 76.6037 11.7249C76.4333 11.6674 76.1777 11.6098 75.837 11.5523C75.5043 11.4865 75.2812 11.4454 75.1677 11.429C75.0622 11.4125 74.8026 11.3838 74.3888 11.3427C73.9831 11.2933 73.756 11.2646 73.7073 11.2563C72.1496 11.0426 69.9874 10.9522 67.2209 10.985C65.2169 11.0097 63.0102 11.0755 60.6006 11.1823C60.6898 11.3961 60.7142 11.6386 60.6736 11.9099C60.6249 12.1812 60.5235 12.3949 60.3694 12.5511C60.2477 12.6827 60.199 12.9252 60.2233 13.2787C60.2477 13.6322 60.3734 14.5406 60.6006 16.0039C61.1361 19.0457 61.6512 21.7422 62.1461 24.0934C62.8195 27.39 63.0994 29.1411 62.9858 29.3466C62.7992 29.7659 62.4382 30.07 61.9027 30.2591C61.3673 30.4482 60.9981 30.403 60.7953 30.1235C60.7223 30.0166 60.3572 28.393 59.7 25.2526C59.0348 22.1121 58.5277 19.5677 58.1788 17.6194C57.7813 15.3833 57.473 13.3034 57.2539 11.3796C56.8483 11.4043 56.2925 11.4495 55.5867 11.5153C54.8727 11.5811 54.39 11.6222 54.1385 11.6386C53.0595 11.7537 51.8547 11.9058 50.5241 12.0949C48.3742 12.4155 47.0314 12.6662 46.496 12.8471C46.0335 13.028 45.5792 13.0896 45.133 13.0321C44.6867 12.9745 44.3095 12.806 44.0012 12.5265C43.9038 12.4443 43.8349 12.3867 43.7943 12.3538C43.7537 12.3127 43.6969 12.2511 43.6239 12.1689C43.5509 12.0784 43.5063 12.0003 43.4901 11.9346C43.4657 11.8688 43.4576 11.7907 43.4657 11.7003C43.4657 11.6098 43.4941 11.5194 43.5509 11.429C43.6239 11.2974 43.7862 11.1536 44.0377 10.9974C44.2892 10.8412 44.6016 10.6891 44.9748 10.5411C45.3399 10.3849 45.6765 10.2493 45.9848 10.1342C46.2931 10.0109 46.6379 9.88754 47.0193 9.76422C47.4006 9.63269 47.6318 9.55048 47.7129 9.51759C48.005 9.39428 48.2038 9.34906 48.3092 9.38195C48.4147 9.41483 48.4593 9.47238 48.4431 9.55459C48.4269 9.6368 48.4269 9.74367 48.4431 9.87521C48.4593 9.99852 48.5242 10.089 48.6378 10.1465C48.6865 10.1794 48.9461 10.1629 49.4167 10.0972C49.8791 10.0232 50.3862 9.94097 50.9379 9.85054C51.4896 9.75189 51.7938 9.69845 51.8506 9.69023C53.9357 9.4436 55.6719 9.2833 57.0592 9.20931C57.0105 8.6585 56.9862 8.16113 56.9862 7.7172C56.9619 6.67313 57.5338 6.1511 58.7021 6.1511C58.9617 6.1511 59.1605 6.17577 59.2984 6.22509C59.4364 6.2662 59.5621 6.38951 59.6757 6.59504C59.7893 6.79234 59.8785 7.04719 59.9434 7.35959C60.0083 7.67198 60.0854 8.13647 60.1747 8.75304L60.199 9.03667C62.8844 8.90513 65.8254 8.88047 69.022 8.96268C71.1152 9.04489 72.3443 9.10243 72.7094 9.13532C73.6505 9.20931 74.6322 9.42305 75.6544 9.77655C76.6767 10.1218 77.4312 10.5822 77.918 11.1577Z" fill="white"/>
<path d="M87.9458 22.8232C88.2135 22.8232 88.4123 22.8685 88.5421 22.9589C88.6719 23.0411 88.7409 23.1891 88.749 23.4028C88.7571 23.6166 88.7044 23.8961 88.5908 24.2414C88.4772 24.5784 88.2946 25.0141 88.0431 25.5485C87.4915 26.7241 86.814 27.7435 86.0108 28.6067C85.2076 29.4699 84.3395 30.1029 83.4065 30.5058C83.0333 30.6784 82.5425 30.7976 81.934 30.8634C81.3336 30.9291 80.8955 30.9168 80.6197 30.8264C80.0355 30.6208 79.4798 30.2756 78.9524 29.7905C78.4251 29.3055 78.0072 28.7506 77.6989 28.1258C77.4556 27.6407 77.3257 27.3982 77.3095 27.3982C77.3095 27.39 77.2365 27.3982 77.0905 27.4229C76.9444 27.4558 76.7741 27.4969 76.5793 27.5462C76.2548 27.6284 76.0398 27.6613 75.9343 27.6449C75.8208 27.6366 75.6869 27.5709 75.5327 27.4476C75.3056 27.2338 75.2163 27.0365 75.265 26.8556C75.3137 26.6748 75.5368 26.3747 75.9343 25.9554L76.628 25.2032L76.4333 24.266C76.3035 23.6248 76.2386 22.1861 76.2386 19.95C76.2548 18.4456 76.2832 17.3974 76.3238 16.8055C76.3562 16.2054 76.4414 15.5765 76.5793 14.9188C76.985 13.0855 77.488 11.7455 78.0884 10.8987C78.6806 10.052 79.4676 9.56692 80.4493 9.4436C82.2261 9.22164 83.6215 10.1547 84.6356 12.2428C85.1468 13.3198 85.5159 14.4995 85.7431 15.782C85.9702 17.0562 86.023 18.2606 85.9013 19.3951C85.8202 20.1514 85.7958 20.6036 85.8283 20.7516C85.9418 21.0557 85.8688 21.3435 85.6092 21.6148C85.3577 21.8861 84.7654 22.2971 83.8324 22.8479C80.8793 24.599 79.4027 25.5773 79.4027 25.7828C79.4027 25.9883 79.5893 26.4076 79.9625 27.0406C80.3438 27.6736 80.6643 28.097 80.9239 28.3108C82.0597 29.2644 83.228 29.0959 84.4288 27.8052C84.8587 27.3448 85.2157 26.8556 85.4997 26.3377C85.7918 25.8198 86.0514 25.2032 86.2785 24.488C86.4408 23.9536 86.6639 23.5426 86.9479 23.2549C87.2399 22.9671 87.5726 22.8232 87.9458 22.8232ZM78.5265 21.2572C78.6644 22.9589 78.7983 23.7851 78.9281 23.7358C79.0579 23.6947 79.7475 23.2918 80.9969 22.5273C81.7433 22.0669 82.2626 21.7299 82.5546 21.5161C82.8467 21.2941 83.0171 21.1092 83.0658 20.9612C83.1307 20.6981 83.1631 19.913 83.1631 18.6059C83.1469 17.0768 82.9522 15.6874 82.579 14.4378C82.2058 13.18 81.7109 12.2634 81.0943 11.6879C80.8184 11.4249 80.6278 11.3221 80.5223 11.3796C80.4249 11.4372 80.2343 11.7496 79.9503 12.3168C79.4879 13.2622 79.1106 14.6557 78.8186 16.4972C78.5265 18.3305 78.4291 19.9171 78.5265 21.2572Z" fill="white"/>
<path d="M95.4423 14.4625C95.5964 14.4872 95.7506 14.4913 95.9047 14.4748C96.0589 14.4584 96.2049 14.4543 96.3428 14.4625C96.4889 14.4625 96.6146 14.4748 96.7201 14.4995C96.8256 14.5159 96.9026 14.5735 96.9513 14.6721C97 14.7626 97.0122 14.8941 96.9878 15.0668C96.8986 15.5518 96.6958 15.967 96.3793 16.3122C96.0629 16.6493 95.7181 16.8795 95.3449 17.0028C94.9717 17.1261 94.6026 17.1754 94.2375 17.1508C93.8724 17.1261 93.5844 17.0233 93.3734 16.8425C93.2517 16.7521 93.1382 16.637 93.0327 16.4972C92.9353 16.3492 92.8583 16.2218 92.8015 16.1149C92.7528 15.9998 92.696 15.893 92.6311 15.7943C92.5662 15.6957 92.5094 15.6504 92.4607 15.6587C92.412 15.6587 92.3431 15.6998 92.2538 15.782C91.8806 16.4643 91.4953 17.5577 91.0977 19.0622C90.7083 20.5666 90.4811 21.7463 90.4162 22.6013C90.4 22.8315 90.3919 23.0288 90.3919 23.1932C90.4 23.3494 90.4041 23.4892 90.4041 23.6125C90.4122 23.7276 90.4324 23.8755 90.4649 24.0564C90.5055 24.2373 90.542 24.4017 90.5744 24.5497C90.6069 24.6976 90.6596 24.9443 90.7326 25.2895C90.8138 25.6348 90.8908 25.9678 90.9639 26.2884C91.0937 26.7899 91.0328 27.1269 90.7813 27.2996C90.5298 27.4722 90.1404 27.5462 89.613 27.5215C89.183 27.4969 88.8707 27.4434 88.676 27.3612C88.4812 27.2872 88.2784 27.0982 88.0675 26.794C87.7105 26.2761 87.3616 24.4757 87.0209 21.3928C86.672 18.3017 86.5584 16.3369 86.6801 15.4984C86.7532 15.0544 86.8221 14.7831 86.887 14.6845C86.9519 14.5776 87.1223 14.4625 87.3981 14.3392C87.7957 14.1994 88.177 14.1624 88.5421 14.2282C88.8991 14.2858 89.179 14.4337 89.3818 14.6721C89.5846 14.9106 89.6211 15.1695 89.4913 15.449C89.3777 15.9176 89.3777 17.2412 89.4913 19.4198C89.4994 19.3704 89.5157 19.2964 89.54 19.1978C89.5643 19.0909 89.5806 19.0128 89.5887 18.9635L89.6374 18.8155C89.9619 17.3686 90.2458 16.2711 90.4892 15.523C90.5704 15.2764 90.6353 15.0791 90.684 14.9311C90.7407 14.7831 90.8138 14.6064 90.903 14.4009C91.0004 14.1871 91.0977 14.0186 91.1951 13.8953C91.2924 13.7719 91.4101 13.6445 91.548 13.513C91.694 13.3815 91.8604 13.2828 92.047 13.217C92.2417 13.143 92.4526 13.0978 92.6798 13.0814C92.7203 13.0814 92.7771 13.0773 92.8502 13.0691C92.9232 13.0526 92.9921 13.0444 93.057 13.0444C93.1219 13.0444 93.1787 13.0567 93.2274 13.0814C93.5114 13.2129 93.8724 13.4678 94.3105 13.8459C94.7486 14.2159 95.1259 14.4214 95.4423 14.4625Z" fill="white"/>
</svg>
