<svg width="135" height="28" viewBox="0 0 135 28" fill="none" xmlns="http://www.w3.org/2000/svg">
<path d="M0 1.37279H3.16742V10.5989H3.26525L6.88516 1.37279H10.0403L6.01687 11.2792L10.4928 22.4965H7.10529L3.26525 12.4417H3.16742V22.4965H0V1.37279Z" fill="#F7F6F2"/>
<path d="M10.9096 5.46643H13.2699L13.5756 7.28445V7.29682C14.0567 6.51355 14.6029 5.98174 15.2144 5.70141C15.8258 5.41284 16.4414 5.26855 17.061 5.26855C18.0394 5.26855 18.7976 5.61896 19.3357 6.31979C19.8738 7.02061 20.1428 8.0636 20.1428 9.44876V22.4965H17.0488V9.81979C17.0488 9.06949 16.9346 8.55006 16.7064 8.26148C16.4781 7.96466 16.1438 7.81625 15.7035 7.81625C15.3937 7.81625 15.0921 7.91932 14.7986 8.12544C14.5051 8.33157 14.2401 8.61602 14.0037 8.9788V22.4965H10.9096V5.46643Z" fill="#F7F6F2"/>
<path d="M26.5276 22.682C25.9895 22.682 25.4473 22.6037 24.901 22.447C24.3548 22.2821 23.8493 21.9523 23.3846 21.4576C22.928 20.9629 22.5611 20.2167 22.2839 19.2191C22.0067 18.2132 21.8681 16.8693 21.8681 15.1873V12.5159C21.8681 10.8587 22.0108 9.5477 22.2962 8.58304C22.5815 7.61013 22.9566 6.88869 23.4213 6.41873C23.886 5.94052 24.3915 5.63133 24.9377 5.49117C25.484 5.34276 26.018 5.26855 26.5398 5.26855C27.0453 5.26855 27.5671 5.33863 28.1051 5.4788C28.6432 5.61072 29.1406 5.91166 29.5971 6.38163C30.0537 6.84335 30.4247 7.56478 30.71 8.54594C30.9954 9.51885 31.138 10.8422 31.138 12.5159V15.1873C31.138 16.8445 30.9913 18.172 30.6978 19.1696C30.4043 20.159 30.0252 20.9093 29.5604 21.4205C29.0957 21.9234 28.5943 22.2615 28.0562 22.4346C27.5263 22.5995 27.0167 22.682 26.5276 22.682ZM26.552 20.3569C27.1064 20.3569 27.4896 20.0477 27.7016 19.4293C27.9217 18.811 28.0318 17.7061 28.0318 16.1148V11.8728C28.0318 10.2733 27.9217 9.16019 27.7016 8.53357C27.4896 7.90695 27.1064 7.59364 26.552 7.59364C25.9732 7.59364 25.5655 7.90695 25.3291 8.53357C25.0926 9.16019 24.9744 10.2733 24.9744 11.8728V16.1148C24.9744 17.7061 25.0926 18.811 25.3291 19.4293C25.5655 20.0477 25.9732 20.3569 26.552 20.3569Z" fill="#F7F6F2"/>
<path d="M34.441 22.4965L31.6649 5.46643H34.6122L35.8229 14.6926L36.1164 18.1431H36.2142L36.5811 14.6926L38.1954 5.46643H40.8003L42.4635 14.6926L42.9159 18.1431H43.0138L43.2217 14.6926L44.2856 5.46643H47.1718L44.4446 22.4965H41.5952L39.8464 13.023L39.455 10.4134H39.3572L39.0025 13.023L37.4127 22.4965H34.441Z" fill="#F7F6F2"/>
<path d="M48.1144 0H51.2085V22.4965H48.1144V0Z" fill="#F7F6F2"/>
<path d="M52.9583 15.5212V12.3057C52.9583 11.0029 53.0683 9.92285 53.2884 9.06537C53.5086 8.20789 53.798 7.52356 54.1567 7.01237C54.5236 6.50118 54.9231 6.12191 55.3552 5.87456C55.7955 5.62721 56.2317 5.46643 56.6638 5.39223C57.0959 5.30978 57.4913 5.26855 57.85 5.26855C58.5919 5.26855 59.2768 5.42933 59.9046 5.75088C60.5323 6.06419 61.0337 6.60836 61.4088 7.38339C61.792 8.15018 61.9836 9.2179 61.9836 10.5866C61.9836 11.2709 61.9469 11.9717 61.8735 12.689C61.8001 13.3981 61.7023 14.0247 61.58 14.5689H56.0645V16.3004C56.0645 17.7845 56.1868 18.8316 56.4314 19.4417C56.6841 20.0518 57.1611 20.3569 57.8622 20.3569C58.2454 20.3569 58.5919 20.192 58.9017 19.8622C59.2116 19.5241 59.3665 18.9058 59.3665 18.0071V17.265H61.9102V18.0442C61.9102 19.6602 61.527 20.8392 60.7606 21.5813C60.0024 22.3151 58.9017 22.682 57.4587 22.682C56.0075 22.682 54.8946 22.1213 54.12 21C53.3455 19.8787 52.9583 18.0524 52.9583 15.5212ZM59.0974 12.4664C59.1137 12.285 59.126 12.013 59.1341 11.6502C59.1423 11.2792 59.1463 10.9823 59.1463 10.7597C59.1463 9.63015 59.0281 8.82214 58.7917 8.33569C58.5552 7.84923 58.1802 7.60188 57.6666 7.59364C57.1203 7.59364 56.7168 7.87397 56.4559 8.43463C56.195 8.98704 56.0645 9.99706 56.0645 11.4647V12.4664H59.0974Z" fill="#F7F6F2"/>
<path d="M63.1341 16.5477V11.1431C63.1341 9.99706 63.2279 9.05713 63.4154 8.32332C63.6029 7.58952 63.8434 7.01649 64.1369 6.60424C64.4386 6.18375 64.7565 5.8828 65.0908 5.70141C65.4332 5.51178 65.7594 5.39635 66.0692 5.35512C66.379 5.30565 66.6317 5.28092 66.8274 5.28092C67.4389 5.28092 67.9688 5.43345 68.4172 5.73852C68.8656 6.03534 69.204 6.35689 69.4323 6.70318L69.4445 6.69081L69.3466 4.53887V0H72.4285V22.4965H70.0193L69.7502 20.9134C69.4812 21.3669 69.1102 21.7792 68.6373 22.1502C68.1645 22.513 67.5367 22.6943 66.754 22.6943C66.4687 22.6943 66.1222 22.6408 65.7145 22.5336C65.315 22.4264 64.9155 22.179 64.516 21.7915C64.1247 21.3958 63.7945 20.7856 63.5254 19.9611C63.2645 19.1284 63.1341 17.9906 63.1341 16.5477ZM69.3466 18.9223V9.06537C69.1917 8.72733 68.9838 8.43463 68.7229 8.18728C68.4702 7.93993 68.1604 7.81625 67.7935 7.81625C67.4919 7.81625 67.2228 7.8987 66.9864 8.0636C66.7581 8.22026 66.5746 8.5212 66.436 8.96643C66.3056 9.40342 66.2404 10.0465 66.2404 10.8958V17.0424C66.2404 17.8834 66.3056 18.5306 66.436 18.9841C66.5746 19.4293 66.7622 19.7344 66.9986 19.8993C67.235 20.0642 67.5041 20.1466 67.8057 20.1466C68.2134 20.1466 68.5395 20.023 68.7841 19.7756C69.0287 19.52 69.2162 19.2356 69.3466 18.9223Z" fill="#F7F6F2"/>
<path d="M77.1011 23.659C77.1011 24.3846 77.2356 24.8999 77.5046 25.2049C77.7818 25.5183 78.1976 25.6749 78.752 25.6749C79.0619 25.6749 79.3472 25.6048 79.6081 25.4647C79.8772 25.3327 80.0932 25.0854 80.2563 24.7226C80.4193 24.3598 80.5008 23.8322 80.5008 23.1396V20.4558C80.2236 20.8104 79.869 21.1196 79.4369 21.3834C79.0048 21.6472 78.4626 21.7792 77.8104 21.7792C77.525 21.7792 77.1785 21.7256 76.7709 21.6184C76.3714 21.5112 75.9719 21.2638 75.5724 20.8763C75.1811 20.4806 74.8509 19.8663 74.5818 19.0336C74.3209 18.2008 74.1905 17.063 74.1905 15.6201V11.1431C74.1905 9.75795 74.3209 8.66961 74.5818 7.87809C74.8509 7.08657 75.1811 6.5053 75.5724 6.13428C75.9719 5.76325 76.3795 5.52827 76.7953 5.42933C77.2193 5.33039 77.5821 5.28092 77.8838 5.28092C78.7072 5.28092 79.3391 5.4788 79.7793 5.87456C80.2277 6.26207 80.5661 6.68257 80.7944 7.13604L81.0756 5.45406H83.4848V21.8039C83.4848 23.7002 83.1139 25.2049 82.3719 26.318C81.63 27.4393 80.4356 28 78.7887 28C78.0468 28 77.3701 27.9052 76.7586 27.7155C76.1472 27.5342 75.658 27.2002 75.2911 26.7138C74.9324 26.2273 74.753 25.5389 74.753 24.6484C74.753 24.3681 74.806 24.0383 74.912 23.659H77.1011ZM78.8621 19.2314C79.2698 19.2314 79.5959 19.1037 79.8405 18.8481C80.085 18.5925 80.2726 18.308 80.403 17.9947V9.06537C80.2481 8.72733 80.0402 8.43463 79.7793 8.18728C79.5266 7.93993 79.2168 7.81625 78.8499 7.81625C78.5482 7.81625 78.2792 7.8987 78.0427 8.0636C77.8145 8.22026 77.631 8.5212 77.4924 8.96643C77.362 9.40342 77.2967 10.0465 77.2967 10.8958V16.1148C77.2967 16.9558 77.362 17.6031 77.4924 18.0565C77.631 18.5018 77.8185 18.811 78.055 18.9841C78.2914 19.149 78.5604 19.2314 78.8621 19.2314Z" fill="#F7F6F2"/>
<path d="M85.2224 15.5212V12.3057C85.2224 11.0029 85.3324 9.92285 85.5526 9.06537C85.7727 8.20789 86.0621 7.52356 86.4209 7.01237C86.7877 6.50118 87.1872 6.12191 87.6193 5.87456C88.0596 5.62721 88.4958 5.46643 88.9279 5.39223C89.36 5.30978 89.7554 5.26855 90.1141 5.26855C90.8561 5.26855 91.5409 5.42933 92.1687 5.75088C92.7965 6.06419 93.2979 6.60836 93.6729 7.38339C94.0561 8.15018 94.2477 9.2179 94.2477 10.5866C94.2477 11.2709 94.211 11.9717 94.1376 12.689C94.0642 13.3981 93.9664 14.0247 93.8441 14.5689H88.3287V16.3004C88.3287 17.7845 88.4509 18.8316 88.6955 19.4417C88.9483 20.0518 89.4252 20.3569 90.1264 20.3569C90.5096 20.3569 90.8561 20.192 91.1659 19.8622C91.4757 19.5241 91.6306 18.9058 91.6306 18.0071V17.265H94.1743V18.0442C94.1743 19.6602 93.7911 20.8392 93.0247 21.5813C92.2665 22.3151 91.1659 22.682 89.7228 22.682C88.2716 22.682 87.1587 22.1213 86.3842 21C85.6096 19.8787 85.2224 18.0524 85.2224 15.5212ZM91.3615 12.4664C91.3779 12.285 91.3901 12.013 91.3982 11.6502C91.4064 11.2792 91.4105 10.9823 91.4105 10.7597C91.4105 9.63015 91.2922 8.82214 91.0558 8.33569C90.8194 7.84923 90.4443 7.60188 89.9307 7.59364C89.3845 7.59364 88.9809 7.87397 88.72 8.43463C88.4591 8.98704 88.3287 9.99706 88.3287 11.4647V12.4664H91.3615Z" fill="#F7F6F2"/>
<path d="M95.7407 1.37279H98.9448C99.6541 1.37279 100.388 1.41814 101.146 1.50883C101.904 1.59953 102.61 1.80153 103.262 2.11484C103.914 2.41991 104.44 2.89399 104.839 3.5371C105.247 4.18021 105.451 5.05418 105.451 6.15901V7.18551C105.451 8.30683 105.186 9.22203 104.656 9.9311C104.134 10.6319 103.551 11.1019 102.907 11.341V11.4399C103.853 11.8192 104.57 12.3634 105.059 13.0724C105.549 13.7815 105.793 14.7627 105.793 16.0159V17.0919C105.793 18.2379 105.61 19.1696 105.243 19.8869C104.884 20.596 104.391 21.1402 103.763 21.5194C103.135 21.8987 102.418 22.1584 101.611 22.2986C100.804 22.4305 99.9557 22.4965 99.0671 22.4965H95.7407V1.37279ZM99.4584 10.4134C100.306 10.4134 100.983 10.2032 101.488 9.78269C101.994 9.35395 102.247 8.64488 102.247 7.65548V6.78975C102.247 5.8086 102.043 5.05006 101.635 4.51413C101.228 3.97821 100.502 3.71025 99.4584 3.71025H98.9081V10.4134H99.4584ZM99.7519 20.159C100.6 20.159 101.272 19.9488 101.77 19.5283C102.275 19.0995 102.528 18.3905 102.528 17.4011V15.7562C102.528 14.7668 102.324 14.0082 101.917 13.4806C101.517 12.9446 100.795 12.6767 99.7519 12.6767H98.9081V20.159H99.7519Z" fill="#F7F6F2"/>
<path d="M110.356 13.0353C110.666 12.8787 111 12.7179 111.359 12.553C111.717 12.3881 112.048 12.2521 112.349 12.1449V10.0795C112.349 9.65077 112.329 9.25088 112.288 8.87986C112.255 8.50883 112.145 8.20789 111.958 7.97703C111.778 7.73793 111.469 7.61837 111.028 7.61837C110.588 7.61837 110.193 7.79976 109.842 8.16254C109.492 8.52532 109.316 9.19729 109.316 10.1784V10.8587H106.956C106.809 10.2155 106.736 9.65489 106.736 9.17668C106.736 7.90695 107.148 6.94229 107.971 6.28269C108.794 5.61484 109.846 5.28092 111.126 5.28092C112.243 5.28092 113.116 5.4417 113.743 5.76325C114.371 6.07656 114.811 6.55477 115.064 7.19788C115.317 7.83274 115.443 8.64075 115.443 9.62191V22.4965H113.058L112.838 21.0371C112.512 21.5153 112.08 21.9111 111.542 22.2244C111.004 22.5377 110.38 22.6943 109.671 22.6943C108.937 22.6943 108.334 22.5047 107.861 22.1254C107.388 21.7462 107.033 21.2473 106.797 20.629C106.569 20.0024 106.455 19.3221 106.455 18.5883C106.455 17.1867 106.785 16.0736 107.445 15.2491C108.106 14.4164 109.076 13.6784 110.356 13.0353ZM111.041 20.3074C111.302 20.3074 111.542 20.2415 111.762 20.1095C111.982 19.9694 112.178 19.8004 112.349 19.6025V14.235C112.194 14.3009 112.027 14.3793 111.848 14.47C111.668 14.5607 111.461 14.6802 111.224 14.8286C110.792 15.1007 110.388 15.5088 110.013 16.053C109.638 16.5889 109.451 17.2733 109.451 18.106C109.451 18.7574 109.577 19.2892 109.83 19.7014C110.083 20.1054 110.486 20.3074 111.041 20.3074Z" fill="#F7F6F2"/>
<path d="M116.728 18.9346C116.728 18.5636 116.761 18.2049 116.826 17.8587C116.899 17.5124 116.969 17.2362 117.034 17.03H119.211C119.211 18.2668 119.362 19.1325 119.663 19.6272C119.973 20.1137 120.413 20.3569 120.984 20.3569C121.392 20.3569 121.71 20.2332 121.938 19.9859C122.166 19.7303 122.28 19.4293 122.28 19.083C122.28 18.7203 122.183 18.3698 121.987 18.0318C121.799 17.6938 121.539 17.3227 121.204 16.9187L119.04 14.2226C118.453 13.4723 117.927 12.689 117.462 11.8728C117.005 11.0483 116.777 10.1413 116.777 9.15194C116.777 8.26973 116.969 7.54417 117.352 6.97527C117.735 6.39812 118.241 5.96938 118.868 5.68905C119.496 5.40872 120.177 5.26855 120.911 5.26855C122.126 5.26855 123.096 5.56537 123.821 6.15901C124.547 6.74441 124.91 7.62662 124.91 8.80565C124.91 9.19317 124.873 9.57656 124.8 9.95583C124.734 10.3269 124.669 10.6443 124.604 10.9081H122.464C122.448 9.78681 122.317 8.95406 122.073 8.40989C121.828 7.86572 121.424 7.59364 120.862 7.59364C120.389 7.59364 120.063 7.74205 119.883 8.03887C119.704 8.33569 119.614 8.66549 119.614 9.02827C119.614 9.42403 119.712 9.78269 119.908 10.1042C120.104 10.4176 120.356 10.7721 120.666 11.1678L123.112 14.1608C123.348 14.4576 123.622 14.8369 123.931 15.2986C124.241 15.7521 124.51 16.2674 124.739 16.8445C124.975 17.4134 125.093 18.0318 125.093 18.6996C125.093 19.8952 124.722 20.8598 123.98 21.5936C123.238 22.3192 122.179 22.682 120.801 22.682C120.051 22.682 119.366 22.5665 118.746 22.3357C118.127 22.0966 117.633 21.7049 117.266 21.1608C116.908 20.6084 116.728 19.8663 116.728 18.9346Z" fill="#F7F6F2"/>
<path d="M125.975 15.5212V12.3057C125.975 11.0029 126.085 9.92285 126.305 9.06537C126.525 8.20789 126.814 7.52356 127.173 7.01237C127.54 6.50118 127.94 6.12191 128.372 5.87456C128.812 5.62721 129.248 5.46643 129.68 5.39223C130.112 5.30978 130.508 5.26855 130.866 5.26855C131.608 5.26855 132.293 5.42933 132.921 5.75088C133.549 6.06419 134.05 6.60836 134.425 7.38339C134.808 8.15018 135 9.2179 135 10.5866C135 11.2709 134.963 11.9717 134.89 12.689C134.817 13.3981 134.719 14.0247 134.596 14.5689H129.081V16.3004C129.081 17.7845 129.203 18.8316 129.448 19.4417C129.701 20.0518 130.178 20.3569 130.879 20.3569C131.262 20.3569 131.608 20.192 131.918 19.8622C132.228 19.5241 132.383 18.9058 132.383 18.0071V17.265H134.927V18.0442C134.927 19.6602 134.543 20.8392 133.777 21.5813C133.019 22.3151 131.918 22.682 130.475 22.682C129.024 22.682 127.911 22.1213 127.136 21C126.362 19.8787 125.975 18.0524 125.975 15.5212ZM132.114 12.4664C132.13 12.285 132.142 12.013 132.151 11.6502C132.159 11.2792 132.163 10.9823 132.163 10.7597C132.163 9.63015 132.045 8.82214 131.808 8.33569C131.572 7.84923 131.197 7.60188 130.683 7.59364C130.137 7.59364 129.733 7.87397 129.472 8.43463C129.211 8.98704 129.081 9.99706 129.081 11.4647V12.4664H132.114Z" fill="#F7F6F2"/>
</svg>
