<svg width="1386" height="880" viewBox="0 0 1386 880" fill="none" xmlns="http://www.w3.org/2000/svg">
<path d="M1386 100H207.422L206.821 100.011C206.158 100.026 204.993 100.064 203.4 100.152C200.2 100.329 195.366 100.705 189.463 101.498C177.395 103.119 162.192 106.305 147.694 112.258C133.143 118.233 121.431 126.111 113.512 135.929C106.239 144.945 100 158.177 100 179.886C100 201.587 106.241 214.841 113.535 223.89C121.476 233.739 133.216 241.645 147.79 247.647C162.309 253.627 177.532 256.836 189.611 258.475C195.521 259.276 200.361 259.66 203.564 259.842C205.159 259.932 206.325 259.972 206.989 259.988L207.592 260H1087V260.234C1087.51 260.26 1088.03 260.287 1088.58 260.318C1093.98 260.625 1101.43 261.23 1110.26 262.43C1127.67 264.794 1151.76 269.639 1176.56 279.864C1201.3 290.068 1228.88 306.517 1250.41 333.267C1272.59 360.814 1286 396.395 1286 439.864C1286 483.325 1272.61 518.905 1250.46 546.466C1228.95 573.232 1201.41 589.723 1176.69 599.968C1151.91 610.234 1127.83 615.121 1110.43 617.516C1101.6 618.731 1094.16 619.349 1088.76 619.665C1087.38 619.746 1086.12 619.807 1085 619.854V620H207.422L206.821 620.011C206.158 620.026 204.993 620.064 203.4 620.152C200.2 620.329 195.366 620.705 189.463 621.498C177.395 623.119 162.192 626.305 147.694 632.258C133.143 638.233 121.431 646.111 113.512 655.929C106.239 664.945 100 678.177 100 699.886C100 721.587 106.241 734.841 113.535 743.89C121.476 753.739 133.216 761.645 147.79 767.647C162.309 773.627 177.532 776.836 189.611 778.475C195.521 779.276 200.361 779.66 203.564 779.842C205.159 779.932 206.325 779.972 206.989 779.988L207.592 780H1386V880H205V879.966C204.832 879.962 204.656 879.962 204.474 879.957C202.831 879.916 200.613 879.836 197.9 879.682C192.491 879.375 185.026 878.769 176.17 877.567C158.719 875.2 134.566 870.35 109.71 860.113C84.9092 849.899 57.274 833.433 35.6836 806.652C13.4474 779.07 -3.64891e-10 743.434 0 699.886C7.36285e-05 656.345 13.4368 620.716 35.6768 593.145C57.2704 566.374 84.9091 549.936 109.708 539.753C134.561 529.547 158.709 524.73 176.154 522.388C185.007 521.199 192.469 520.604 197.877 520.305C200.589 520.155 202.806 520.078 204.448 520.039C205.27 520.02 205.95 520.01 206.478 520.005C206.673 520.003 206.847 520.002 207 520.001V520H1078.92L1079.51 519.987C1080.17 519.97 1081.33 519.929 1082.92 519.836C1086.1 519.649 1090.92 519.258 1096.8 518.449C1108.82 516.795 1123.96 513.57 1138.41 507.584C1152.91 501.576 1164.6 493.673 1172.51 483.828C1179.78 474.778 1186 461.528 1186 439.864C1186 418.209 1179.78 404.994 1172.52 395.981C1164.62 386.171 1152.95 378.294 1138.44 372.312C1123.99 366.353 1108.83 363.154 1096.8 361.521C1090.92 360.721 1086.1 360.338 1082.91 360.157C1081.32 360.067 1080.16 360.028 1079.5 360.012L1078.91 360H207V359.997C206.853 359.996 206.687 359.996 206.503 359.994C205.975 359.988 205.295 359.978 204.474 359.957C202.831 359.916 200.613 359.836 197.9 359.682C192.491 359.375 185.026 358.769 176.17 357.567C158.719 355.2 134.566 350.35 109.71 340.113C84.9092 329.899 57.274 313.433 35.6836 286.652C13.4474 259.07 -3.64891e-10 223.434 0 179.886C7.36285e-05 136.345 13.4368 100.716 35.6768 73.1445C57.2704 46.3741 84.9091 29.9364 109.708 19.7529C134.561 9.54713 158.709 4.73017 176.154 2.3877C185.007 1.19897 192.469 0.603843 197.877 0.304688C200.589 0.154687 202.806 0.0780345 204.448 0.0390625C205.27 0.0195612 205.95 0.00987948 206.478 0.00488281C206.673 0.00303697 206.847 0.0018416 207 0.000976562V0H1386V100Z" fill="#474747"/>
<path d="M198.137 828.094C201.097 828.302 203.445 828.404 205.049 828.453C205.851 828.478 206.467 828.49 206.88 828.495C207.086 828.498 207.242 828.499 207.346 828.5H214.842V831.5H205V831.452C204.985 831.452 204.971 831.452 204.956 831.451C203.317 831.4 200.93 831.297 197.927 831.086L198.032 829.59L198.137 828.094ZM254.208 831.5H234.524V828.5H254.208V831.5ZM293.575 831.5H273.892V828.5H293.575V831.5ZM332.941 831.5H313.258V828.5H332.941V831.5ZM372.309 831.5H352.625V828.5H372.309V831.5ZM411.675 831.5H391.991V828.5H411.675V831.5ZM451.042 831.5H431.358V828.5H451.042V831.5ZM490.408 831.5H470.725V828.5H490.408V831.5ZM529.775 831.5H510.092V828.5H529.775V831.5ZM569.142 831.5H549.458V828.5H569.142V831.5ZM608.509 831.5H588.825V828.5H608.509V831.5ZM647.875 831.5H628.191V828.5H647.875V831.5ZM687.242 831.5H667.559V828.5H687.242V831.5ZM726.608 831.5H706.925V828.5H726.608V831.5ZM765.976 831.5H746.292V828.5H765.976V831.5ZM805.342 831.5H785.658V828.5H805.342V831.5ZM844.709 831.5H825.025V828.5H844.709V831.5ZM884.075 831.5H864.392V828.5H884.075V831.5ZM923.441 831.5H903.759V828.5H923.441V831.5ZM962.809 831.5H943.125V828.5H962.809V831.5ZM1002.17 831.5H982.492V828.5H1002.17V831.5ZM1041.54 831.5H1021.86V828.5H1041.54V831.5ZM1080.91 831.5H1061.22V828.5H1080.91V831.5ZM1120.28 831.5H1100.59V828.5H1120.28V831.5ZM1159.64 831.5H1139.96V828.5H1159.64V831.5ZM1199.01 831.5H1179.33V828.5H1199.01V831.5ZM1238.38 831.5H1218.69V828.5H1238.38V831.5ZM1277.74 831.5H1258.06V828.5H1277.74V831.5ZM1317.11 831.5H1297.42V828.5H1317.11V831.5ZM1356.47 831.5H1336.79V828.5H1356.47V831.5ZM1386 831.5H1376.16V828.5H1386V831.5ZM160.674 822.419C167.324 823.972 173.613 825.129 179.298 825.99L179.073 827.474L178.849 828.956C173.096 828.084 166.728 826.914 159.992 825.341L160.674 822.419ZM124.759 810.539C130.651 813.164 136.581 815.405 142.415 817.32L141.947 818.746L141.479 820.171C135.559 818.228 129.533 815.95 123.538 813.279L124.759 810.539ZM92.5283 791.069C97.4556 795.075 102.642 798.654 107.979 801.852L107.207 803.139L106.437 804.425C100.989 801.161 95.6837 797.5 90.6357 793.396L91.582 792.233L92.5283 791.069ZM67.7939 762.968C71.1246 768.449 74.8703 773.472 78.9404 778.075L77.8174 779.068L76.6934 780.062C72.5103 775.332 68.6568 770.166 65.2295 764.525L66.5117 763.747L67.7939 762.968ZM54.2539 728.081C55.581 734.499 57.3584 740.502 59.5225 746.117L58.123 746.656L56.7236 747.196C54.4995 741.426 52.6761 735.264 51.3164 728.688L54.2539 728.081ZM50.293 690.305L51.79 690.397C51.5986 693.478 51.5 696.64 51.5 699.886C51.5 703.134 51.5992 706.298 51.791 709.382L50.2939 709.475L48.7969 709.568C48.6011 706.422 48.5 703.194 48.5 699.886C48.5 696.58 48.6006 693.355 48.7959 690.211L50.293 690.305ZM58.1094 653.15L59.5088 653.689C57.3481 659.3 55.5729 665.299 54.248 671.713L51.3105 671.105C52.668 664.534 54.4883 658.377 56.709 652.611L58.1094 653.15ZM77.7842 620.762L78.9072 621.756C74.8403 626.354 71.0971 631.372 67.7695 636.851L66.4873 636.072L65.2061 635.293C68.6303 629.656 72.4803 624.493 76.6602 619.768L77.7842 620.762ZM107.931 598.011C102.597 601.202 97.4122 604.775 92.4873 608.775L91.541 607.611L90.5957 606.447C95.6414 602.349 100.944 598.694 106.39 595.437L107.931 598.011ZM141.888 581.16L142.354 582.586C136.522 584.493 130.594 586.727 124.704 589.344L124.095 587.974L123.486 586.603C129.479 583.94 135.503 581.67 141.421 579.734L141.888 581.16ZM178.994 572.485L179.218 573.969C173.536 574.822 167.25 575.969 160.604 577.513L160.265 576.052L159.925 574.591C166.657 573.028 173.021 571.865 178.771 571.002L178.994 572.485ZM215.988 571.5H207.246C207.143 571.5 206.987 571.501 206.78 571.504C206.367 571.509 205.752 571.52 204.951 571.544C203.349 571.591 201.002 571.689 198.044 571.893L197.941 570.396L197.838 568.899C200.839 568.693 203.224 568.593 204.862 568.545C205.294 568.532 205.674 568.523 206 568.517V568.5H215.988V571.5ZM255.943 571.5H235.966V568.5H255.943V571.5ZM295.897 571.5H275.92V568.5H295.897V571.5ZM335.853 571.5H315.875V568.5H335.853V571.5ZM375.807 571.5H355.829V568.5H375.807V571.5ZM415.762 571.5H395.784V568.5H415.762V571.5ZM455.716 571.5H435.738V568.5H455.716V571.5ZM495.671 571.5H475.693V568.5H495.671V571.5ZM535.625 571.5H515.647V568.5H535.625V571.5ZM575.58 571.5H555.603V568.5H575.58V571.5ZM615.534 571.5H595.557V568.5H615.534V571.5ZM655.488 571.5H635.512V568.5H655.488V571.5ZM695.443 571.5H675.466V568.5H695.443V571.5ZM735.397 571.5H715.421V568.5H735.397V571.5ZM775.353 571.5H755.375V568.5H775.353V571.5ZM815.307 571.5H795.33V568.5H815.307V571.5ZM855.262 571.5H835.284V568.5H855.262V571.5ZM895.216 571.5H875.238V568.5H895.216V571.5ZM935.171 571.5H915.193V568.5H935.171V571.5ZM975.125 571.5H955.147V568.5H975.125V571.5ZM1015.08 571.5H995.103V568.5H1015.08V571.5ZM1055.03 571.5H1035.06V568.5H1055.03V571.5ZM1088.54 569.573L1088.65 571.069C1087.31 571.166 1086.08 571.24 1085 571.298V571.5H1075.01V568.5H1079.13C1079.16 568.5 1079.2 568.499 1079.25 568.499C1079.35 568.498 1079.51 568.497 1079.71 568.494C1080.13 568.488 1080.74 568.474 1081.54 568.448C1083.14 568.396 1085.48 568.29 1088.43 568.077L1088.54 569.573ZM1126.48 565.259C1119.76 566.843 1113.41 568.025 1107.68 568.906L1107.45 567.424L1107.22 565.941C1112.89 565.07 1119.16 563.903 1125.79 562.339L1126.48 565.259ZM1162.2 551.771L1162.81 553.139C1156.84 555.818 1150.83 558.106 1144.93 560.059L1144.46 558.635L1143.99 557.21C1149.8 555.286 1155.71 553.035 1161.59 550.401L1162.2 551.771ZM1194.63 532.058L1195.58 533.22C1190.56 537.327 1185.28 540.992 1179.85 544.262L1179.08 542.977L1178.3 541.692C1183.62 538.489 1188.78 534.905 1193.68 530.896L1194.63 532.058ZM1220.86 504.361C1217.45 509.995 1213.62 515.156 1209.46 519.884L1207.21 517.901C1211.26 513.301 1214.98 508.283 1218.3 502.809L1220.86 504.361ZM1233.23 468.293L1234.7 468.596C1233.35 475.156 1231.53 481.303 1229.32 487.062L1227.92 486.524L1226.52 485.986C1228.67 480.383 1230.44 474.393 1231.76 467.99L1233.23 468.293ZM1237.21 430.207C1237.4 433.346 1237.5 436.564 1237.5 439.864C1237.5 443.164 1237.4 446.383 1237.21 449.522L1234.21 449.337C1234.4 446.261 1234.5 443.104 1234.5 439.864C1234.5 436.625 1234.4 433.469 1234.21 430.394L1235.71 430.301L1237.21 430.207ZM1229.31 392.675C1231.53 398.432 1233.34 404.577 1234.7 411.137L1233.23 411.439L1231.76 411.743C1230.44 405.341 1228.67 399.353 1226.51 393.752L1227.92 393.213L1229.31 392.675ZM1209.43 359.875C1213.59 364.597 1217.43 369.754 1220.84 375.384L1219.56 376.161L1218.28 376.938C1214.96 371.468 1211.23 366.455 1207.18 361.86L1208.3 360.868L1209.43 359.875ZM1179.79 335.547C1185.21 338.807 1190.5 342.463 1195.53 346.562L1194.59 347.725L1193.64 348.887C1188.73 344.886 1183.56 341.313 1178.24 338.119L1179.01 336.833L1179.79 335.547ZM1144.84 319.817C1150.75 321.759 1156.76 324.035 1162.74 326.702L1161.51 329.442C1155.64 326.821 1149.72 324.581 1143.91 322.668L1144.38 321.243L1144.84 319.817ZM1107.58 311.041C1113.31 311.912 1119.67 313.082 1126.38 314.653L1126.04 316.114L1125.7 317.574C1119.07 316.023 1112.8 314.867 1107.13 314.007L1107.35 312.524L1107.58 311.041ZM1085 308.696C1086.06 308.752 1087.25 308.822 1088.55 308.913L1088.44 310.409L1088.34 311.906C1085.39 311.699 1083.04 311.596 1081.44 311.547C1080.65 311.522 1080.03 311.51 1079.62 311.505C1079.41 311.502 1079.26 311.501 1079.15 311.5H1074.93V308.5H1085V308.696ZM198.137 308.094C201.097 308.302 203.445 308.404 205.049 308.453C205.851 308.478 206.467 308.49 206.88 308.495C207.086 308.498 207.242 308.499 207.346 308.5H217.071V311.5H207V311.496C206.95 311.496 206.896 311.496 206.839 311.495C206.409 311.489 205.776 311.477 204.956 311.451C203.317 311.4 200.93 311.297 197.927 311.086L198.032 309.59L198.137 308.094ZM256.985 311.5H236.956V308.5H256.985V311.5ZM296.83 311.5H276.91V308.5H296.83V311.5ZM336.767 311.5H316.836V308.5H336.767V311.5ZM376.68 311.5H356.674V308.5H376.68V311.5ZM416.545 311.5H396.631V308.5H416.545V311.5ZM456.482 311.5H436.51V308.5H456.482V311.5ZM496.355 311.5H476.428V308.5H496.355V311.5ZM536.278 311.5H516.312V308.5H536.278V311.5ZM576.172 311.5H556.229V308.5H576.172V311.5ZM616.074 311.5H596.114V308.5H616.074V311.5ZM655.974 311.5H636.025V308.5H655.974V311.5ZM695.886 311.5H675.926V308.5H695.886V311.5ZM735.771 311.5H715.828V308.5H735.771V311.5ZM775.688 311.5H755.722V308.5H775.688V311.5ZM815.572 311.5H795.645V308.5H815.572V311.5ZM855.49 311.5H835.518V308.5H855.49V311.5ZM895.369 311.5H875.455V308.5H895.369V311.5ZM935.326 311.5H915.32V308.5H935.326V311.5ZM975.164 311.5H955.233V308.5H975.164V311.5ZM1015.09 311.5H995.17V308.5H1015.09V311.5ZM1055.04 311.5H1035.01V308.5H1055.04V311.5ZM160.674 302.419C167.324 303.972 173.613 305.129 179.298 305.99L179.073 307.474L178.849 308.956C173.096 308.084 166.728 306.914 159.992 305.341L160.674 302.419ZM124.759 290.539C130.651 293.163 136.581 295.405 142.415 297.32L141.947 298.746L141.479 300.171C135.559 298.228 129.533 295.95 123.538 293.279L124.759 290.539ZM92.5283 271.069C97.4556 275.075 102.642 278.654 107.979 281.852L107.207 283.139L106.437 284.425C100.989 281.161 95.6837 277.5 90.6357 273.396L91.582 272.233L92.5283 271.069ZM67.7939 242.968C71.1246 248.449 74.8703 253.472 78.9404 258.075L77.8174 259.068L76.6934 260.062C72.5103 255.332 68.6568 250.166 65.2295 244.525L66.5117 243.747L67.7939 242.968ZM54.2539 208.081C55.581 214.499 57.3584 220.502 59.5225 226.117L58.123 226.656L56.7236 227.196C54.4995 221.426 52.6761 215.264 51.3164 208.688L54.2539 208.081ZM50.293 170.305L51.79 170.397C51.5986 173.478 51.5 176.64 51.5 179.886C51.5 183.134 51.5992 186.298 51.791 189.382L50.2939 189.475L48.7969 189.568C48.6011 186.422 48.5 183.194 48.5 179.886C48.5 176.58 48.6006 173.355 48.7959 170.211L50.293 170.305ZM58.1094 133.15L59.5088 133.689C57.3481 139.3 55.5729 145.299 54.248 151.713L51.3105 151.105C52.668 144.534 54.4883 138.377 56.709 132.611L58.1094 133.15ZM77.7842 100.762L78.9072 101.756C74.8403 106.354 71.0971 111.372 67.7695 116.851L66.4873 116.072L65.2061 115.293C68.6303 109.656 72.4803 104.493 76.6602 99.7676L77.7842 100.762ZM107.931 78.0107C102.597 81.202 97.4122 84.7748 92.4873 88.7754L91.541 87.6113L90.5957 86.4473C95.6414 82.3485 100.944 78.6944 106.39 75.4365L107.931 78.0107ZM141.888 61.1602L142.354 62.5859C136.522 64.4931 130.594 66.7269 124.704 69.3438L124.095 67.9736L123.486 66.6025C129.479 63.94 135.503 61.6698 141.421 59.7344L141.888 61.1602ZM178.994 52.4854L179.218 53.9688C173.536 54.822 167.25 55.9693 160.604 57.5127L160.265 56.0518L159.925 54.5908C166.657 53.0275 173.021 51.8655 178.771 51.002L178.994 52.4854ZM216.669 51.5H207.246C207.143 51.5004 206.987 51.5014 206.78 51.5039C206.367 51.5089 205.752 51.5203 204.951 51.5439C203.349 51.5912 201.002 51.6891 198.044 51.8926L197.941 50.3965L197.838 48.8994C200.839 48.6931 203.224 48.5933 204.862 48.5449C205.538 48.525 206.087 48.5139 206.5 48.5078V48.5H216.669V51.5ZM257.341 51.5H237.005V48.5H257.341V51.5ZM298.014 51.5H277.678V48.5H298.014V51.5ZM338.686 51.5H318.35V48.5H338.686V51.5ZM379.358 51.5H359.022V48.5H379.358V51.5ZM420.03 51.5H399.694V48.5H420.03V51.5ZM460.703 51.5H440.367V48.5H460.703V51.5ZM501.375 51.499H481.039V48.499H501.375V51.499ZM542.048 51.499H521.712V48.499H542.048V51.499ZM582.72 51.499H562.384V48.499H582.72V51.499ZM623.393 51.499H603.057V48.499H623.393V51.499ZM664.064 51.499H643.729V48.499H664.064V51.499ZM704.737 51.499H684.401V48.499H704.737V51.499ZM745.409 51.499H725.073V48.499H745.409V51.499ZM786.082 51.499H765.746V48.499H786.082V51.499ZM826.754 51.499H806.418V48.499H826.754V51.499ZM867.427 51.499H847.091V48.499H867.427V51.499ZM908.099 51.499H887.763V48.499H908.099V51.499ZM948.771 51.499H928.436V48.499H948.771V51.499ZM989.444 51.499H969.107V48.499H989.444V51.499ZM1030.12 51.498L1009.78 51.499V48.499L1030.12 48.498V51.498ZM1070.79 51.498H1050.45V48.498H1070.79V51.498ZM1111.46 51.498H1091.12V48.498H1111.46V51.498ZM1152.13 51.498H1131.8V48.498H1152.13V51.498ZM1192.81 51.498H1172.47V48.498H1192.81V51.498ZM1233.48 51.498H1213.14V48.498H1233.48V51.498ZM1274.15 51.498H1253.81V48.498H1274.15V51.498ZM1314.82 51.498H1294.49V48.498H1314.82V51.498ZM1355.5 51.498H1335.16V48.498H1355.5V51.498ZM1386 51.498H1375.83V48.498H1386V51.498Z" fill="#F7C507"/>
</svg>
