<?xml version="1.0" encoding="utf-8"?><svg viewBox="0 0 23 23" xmlns="http://www.w3.org/2000/svg" xmlns:xlink="http://www.w3.org/1999/xlink"><style>:root>svg{display:none}:root>svg:target{display:block}</style><svg fill="none" viewBox="0 0 21 8" id="arrow" xmlns="http://www.w3.org/2000/svg">
    <path d="M20.354 4.354a.5.5 0 0 0 0-.708L17.172.464a.5.5 0 1 0-.707.708L19.293 4l-2.828 2.828a.5.5 0 1 0 .707.708l3.182-3.182ZM0 4v.5h20v-1H0V4Z" fill="#fff"/>
</svg><svg fill="none" viewBox="0 0 23 23" id="cross" xmlns="http://www.w3.org/2000/svg">
    <g clip-path="url(#ba)">
        <path d="m11.5 10.793 7.778-7.778.707.707-7.778 7.778 7.778 7.778-.707.707-7.778-7.778-7.778 7.778-.707-.707 7.778-7.778-7.778-7.778.707-.707 7.778 7.778Z" fill="#fff"/>
    </g>
    <defs>
        <clipPath id="ba">
            <path fill="#fff" d="M0 0h23v23H0z"/>
        </clipPath>
    </defs>
</svg><svg fill="none" viewBox="0 0 23 23" id="plus" xmlns="http://www.w3.org/2000/svg">
    <path d="M12 11h11v1H12v11h-1V12H0v-1h11V0h1v11Z" fill="#2A2A2A"/>
</svg></svg>