<svg width="76" height="76" viewBox="0 0 76 76" fill="none" xmlns="http://www.w3.org/2000/svg">
<path fill-rule="evenodd" clip-rule="evenodd" d="M69.6667 30.8433L63.3333 34.0733V57C60.1445 63.4632 45.581 66.5 36.4167 66.5C26.3625 66.5 13.0182 63.3523 9.5 57V32.3127L0 26.3087L38 9.5L72.8333 29.2315V57L76 66.5H66.5L69.6667 57V30.8433ZM12.6667 34.3108V56.0753C15.7003 60.1287 26.0205 63.3333 36.4167 63.3333C45.581 63.3333 57.2818 60.2965 60.1667 56.1482V35.6852L35.0772 48.4753L12.6667 34.3108ZM6.71017 26.8027L35.245 44.8337L66.1485 29.0827L37.8258 13.0403L6.71017 26.8027Z" fill="#121212"/>
</svg>
