<svg width="76" height="76" viewBox="0 0 76 76" fill="none" xmlns="http://www.w3.org/2000/svg">
<path fill-rule="evenodd" clip-rule="evenodd" d="M63.3333 47.5011C63.3333 49.2491 61.9147 50.6677 60.1667 50.6677C58.4187 50.6677 57 49.2491 57 47.5011C57 45.7531 58.4187 44.3344 60.1667 44.3344C61.9147 44.3344 63.3333 45.7531 63.3333 47.5011ZM53.8333 47.5011C53.8333 49.2491 52.4147 50.6677 50.6667 50.6677C48.9187 50.6677 47.5 49.2491 47.5 47.5011C47.5 45.7531 48.9187 44.3344 50.6667 44.3344C52.4147 44.3344 53.8333 45.7531 53.8333 47.5011ZM44.3333 47.5011C44.3333 49.2491 42.9147 50.6677 41.1667 50.6677C39.4187 50.6677 38 49.2491 38 47.5011C38 45.7531 39.4187 44.3344 41.1667 44.3344C42.9147 44.3344 44.3333 45.7531 44.3333 47.5011ZM61.4808 63.1634C58.3142 63.9741 55.1823 64.6897 50.9548 64.6897C39.9823 64.6897 28.5 58.1506 28.5 47.5169C28.5 37.6116 38.4433 29.5556 50.6667 29.5556C62.8393 29.5556 72.8333 37.6052 72.8333 47.5169C72.8333 52.5551 70.7877 55.5191 68.1435 58.6857L70.8003 67.1914L61.4808 63.1634ZM19.133 52.4759L5.2345 58.4799L9.21183 45.7752C5.662 41.5287 3.16667 37.3361 3.16667 30.8951C3.16667 17.3512 16.663 6.33439 33.25 6.33439C49.1403 6.33439 62.1553 16.4487 63.2288 29.2041C59.4605 27.4117 55.1507 26.3889 50.6667 26.3889C37.3698 26.3889 25.3333 35.2461 25.3333 47.5169C25.3333 49.7716 25.7988 51.9502 26.6348 54.0054C23.617 53.6064 21.7392 53.1441 19.133 52.4759ZM76 47.5169C76 40.6389 72.2032 34.8027 66.4937 31.0186L66.5 30.8951C66.5 14.7894 50.7047 3.16772 33.25 3.16772C15.6877 3.16772 0 14.8781 0 30.8951C0 36.5761 2.04567 42.1557 5.6715 46.4814L0.148833 64.1261L19.3958 55.8136C22.5055 56.6147 25.5138 57.1024 28.4208 57.3621C32.5913 63.5466 40.6948 67.8564 50.9548 67.8564C54.1817 67.8564 57.6207 67.4289 61.2212 66.5011L75.886 72.8344L71.6807 59.3919C74.4388 56.0922 76 51.8426 76 47.5169Z" fill="#121212"/>
</svg>
