<svg width="76" height="76" viewBox="0 0 76 76" fill="none" xmlns="http://www.w3.org/2000/svg">
<g clip-path="url(#clip0_12001_167)">
<rect x="6.06006" y="6.06006" width="63.88" height="63.88" rx="6.5" stroke="#121212" stroke-width="3"/>
<path d="M37.66 28.58C37.24 28.58 36.88 28.43 36.58 28.13C36.28 27.83 36.13 27.47 36.13 27.05V26.93C36.13 26.51 36.28 26.15 36.58 25.85C36.88 25.55 37.24 25.4 37.66 25.4H37.84C38.26 25.4 38.62 25.55 38.92 25.85C39.22 26.15 39.37 26.51 39.37 26.93V27.05C39.37 27.47 39.22 27.83 38.92 28.13C38.62 28.43 38.26 28.58 37.84 28.58H37.66ZM37.72 47.15C37.34 47.15 37.02 47.02 36.76 46.76C36.5 46.5 36.37 46.18 36.37 45.8V32.93C36.37 32.55 36.5 32.23 36.76 31.97C37.02 31.69 37.34 31.55 37.72 31.55C38.12 31.55 38.45 31.68 38.71 31.94C38.97 32.2 39.1 32.53 39.1 32.93V45.8C39.1 46.18 38.96 46.5 38.68 46.76C38.42 47.02 38.1 47.15 37.72 47.15Z" fill="#121212"/>
</g>
<defs>
<clipPath id="clip0_12001_167">
<rect width="76" height="76" fill="white"/>
</clipPath>
</defs>
</svg>
